<svg width="24" height="25" viewBox="0 0 24 25" fill="none" xmlns="http://www.w3.org/2000/svg">
<path d="M11 17.5779H13V11.5779H11V17.5779ZM12 9.57788C12.2833 9.57788 12.521 9.48188 12.713 9.28988C12.905 9.09788 13.0007 8.86055 13 8.57788C13 8.29455 12.904 8.05721 12.712 7.86588C12.52 7.67455 12.2827 7.57855 12 7.57788C11.7167 7.57788 11.4793 7.67388 11.288 7.86588C11.0967 8.05788 11.0007 8.29521 11 8.57788C11 8.86121 11.096 9.09888 11.288 9.29088C11.48 9.48288 11.7173 9.57855 12 9.57788ZM12 22.5779C10.6167 22.5779 9.31667 22.3152 8.1 21.7899C6.88333 21.2645 5.825 20.5522 4.925 19.6529C4.025 18.7529 3.31267 17.6945 2.788 16.4779C2.26333 15.2612 2.00067 13.9612 2 12.5779C2 11.1945 2.26267 9.89455 2.788 8.67788C3.31333 7.46121 4.02567 6.40288 4.925 5.50288C5.825 4.60288 6.88333 3.89055 8.1 3.36588C9.31667 2.84121 10.6167 2.57855 12 2.57788C13.3833 2.57788 14.6833 2.84055 15.9 3.36588C17.1167 3.89121 18.175 4.60355 19.075 5.50288C19.975 6.40288 20.6877 7.46121 21.213 8.67788C21.7383 9.89455 22.0007 11.1945 22 12.5779C22 13.9612 21.7373 15.2612 21.212 16.4779C20.6867 17.6945 19.9743 18.7529 19.075 19.6529C18.175 20.5529 17.1167 21.2655 15.9 21.7909C14.6833 22.3162 13.3833 22.5785 12 22.5779ZM12 20.5779C14.2333 20.5779 16.125 19.8029 17.675 18.2529C19.225 16.7029 20 14.8112 20 12.5779C20 10.3445 19.225 8.45288 17.675 6.90288C16.125 5.35288 14.2333 4.57788 12 4.57788C9.76667 4.57788 7.875 5.35288 6.325 6.90288C4.775 8.45288 4 10.3445 4 12.5779C4 14.8112 4.775 16.7029 6.325 18.2529C7.875 19.8029 9.76667 20.5779 12 20.5779Z" fill="#04BFAD"/>
</svg>
