<svg width="50" height="50" viewBox="0 0 50 50" fill="none" xmlns="http://www.w3.org/2000/svg">
<path d="M8 24.8333C8 25.3859 8.21947 25.9158 8.61013 26.3065C9.0008 26.6972 9.53065 26.9167 10.0831 26.9167H25.894L21.1029 31.6875C20.9076 31.8812 20.7526 32.1116 20.6469 32.3655C20.5411 32.6193 20.4867 32.8916 20.4867 33.1667C20.4867 33.4417 20.5411 33.714 20.6469 33.9679C20.7526 34.2217 20.9076 34.4522 21.1029 34.6458C21.2965 34.8411 21.5269 34.9961 21.7808 35.1019C22.0346 35.2076 22.3069 35.2621 22.5819 35.2621C22.8569 35.2621 23.1291 35.2076 23.383 35.1019C23.6368 34.9961 23.8672 34.8411 24.0609 34.6458L32.3934 26.3125C32.583 26.1144 32.7317 25.8807 32.8309 25.625C33.0392 25.1178 33.0392 24.5489 32.8309 24.0417C32.7317 23.7859 32.583 23.5523 32.3934 23.3542L24.0609 15.0208C23.8667 14.8266 23.6361 14.6725 23.3823 14.5674C23.1285 14.4622 22.8566 14.4081 22.5819 14.4081C22.3072 14.4081 22.0352 14.4622 21.7814 14.5674C21.5277 14.6725 21.2971 14.8266 21.1029 15.0208C20.9086 15.2151 20.7546 15.4457 20.6494 15.6995C20.5443 15.9533 20.4902 16.2253 20.4902 16.5C20.4902 16.7747 20.5443 17.0467 20.6494 17.3005C20.7546 17.5543 20.9086 17.7849 21.1029 17.9792L25.894 22.75H10.0831C9.53065 22.75 9.0008 22.9695 8.61013 23.3602C8.21947 23.7509 8 24.2808 8 24.8333ZM35.0806 4H14.2494C12.5919 4 11.0024 4.65848 9.8304 5.83058C8.65841 7.00269 8 8.5924 8 10.25V16.5C8 17.0525 8.21947 17.5824 8.61013 17.9731C9.0008 18.3638 9.53065 18.5833 10.0831 18.5833C10.6356 18.5833 11.1655 18.3638 11.5561 17.9731C11.9468 17.5824 12.1663 17.0525 12.1663 16.5V10.25C12.1663 9.69747 12.3857 9.16756 12.7764 8.77686C13.167 8.38616 13.6969 8.16667 14.2494 8.16667H35.0806C35.6331 8.16667 36.163 8.38616 36.5536 8.77686C36.9443 9.16756 37.1638 9.69747 37.1638 10.25V39.4167C37.1638 39.9692 36.9443 40.4991 36.5536 40.8898C36.163 41.2805 35.6331 41.5 35.0806 41.5H14.2494C13.6969 41.5 13.167 41.2805 12.7764 40.8898C12.3857 40.4991 12.1663 39.9692 12.1663 39.4167V33.1667C12.1663 32.6141 11.9468 32.0842 11.5561 31.6935C11.1655 31.3028 10.6356 31.0833 10.0831 31.0833C9.53065 31.0833 9.0008 31.3028 8.61013 31.6935C8.21947 32.0842 8 32.6141 8 33.1667V39.4167C8 41.0743 8.65841 42.664 9.8304 43.8361C11.0024 45.0082 12.5919 45.6667 14.2494 45.6667H35.0806C36.7381 45.6667 38.3276 45.0082 39.4996 43.8361C40.6716 42.664 41.33 41.0743 41.33 39.4167V10.25C41.33 8.5924 40.6716 7.00269 39.4996 5.83058C38.3276 4.65848 36.7381 4 35.0806 4Z" fill="#EBF8F6"/>
</svg>
