<svg width="50" height="50" viewBox="0 0 50 50" fill="none" xmlns="http://www.w3.org/2000/svg">
<path d="M25 25C22.7084 25 20.7466 24.184 19.1146 22.5521C17.4827 20.9201 16.6667 18.9583 16.6667 16.6666C16.6667 14.375 17.4827 12.4132 19.1146 10.7812C20.7466 9.14929 22.7084 8.33331 25 8.33331C27.2917 8.33331 29.2535 9.14929 30.8855 10.7812C32.5174 12.4132 33.3334 14.375 33.3334 16.6666C33.3334 18.9583 32.5174 20.9201 30.8855 22.5521C29.2535 24.184 27.2917 25 25 25ZM8.33337 41.6666V35.8333C8.33337 34.6528 8.63754 33.568 9.24587 32.5791C9.85421 31.5903 10.6612 30.8347 11.6667 30.3125C13.8195 29.2361 16.007 28.4291 18.2292 27.8916C20.4514 27.3541 22.7084 27.0847 25 27.0833C27.2917 27.0819 29.5487 27.3514 31.7709 27.8916C33.9931 28.4319 36.1806 29.2389 38.3334 30.3125C39.3403 30.8333 40.148 31.5889 40.7563 32.5791C41.3646 33.5694 41.6681 34.6541 41.6667 35.8333V41.6666H8.33337ZM12.5 37.5H37.5V35.8333C37.5 35.4514 37.4049 35.1041 37.2146 34.7916C37.0243 34.4791 36.7723 34.2361 36.4584 34.0625C34.5834 33.125 32.691 32.4222 30.7813 31.9541C28.8716 31.4861 26.9445 31.2514 25 31.25C23.0556 31.2486 21.1285 31.4833 19.2188 31.9541C17.3091 32.425 15.4167 33.1278 13.5417 34.0625C13.2292 34.2361 12.9771 34.4791 12.7855 34.7916C12.5938 35.1041 12.4987 35.4514 12.5 35.8333V37.5ZM25 20.8333C26.1459 20.8333 27.1271 20.4257 27.9438 19.6104C28.7605 18.7951 29.1681 17.8139 29.1667 16.6666C29.1653 15.5194 28.7577 14.5389 27.9438 13.725C27.1299 12.9111 26.1487 12.5028 25 12.5C23.8514 12.4972 22.8709 12.9055 22.0584 13.725C21.2459 14.5444 20.8375 15.525 20.8334 16.6666C20.8292 17.8083 21.2375 18.7896 22.0584 19.6104C22.8792 20.4312 23.8598 20.8389 25 20.8333Z" fill="#EBF8F6"/>
</svg>
