<svg width="34" height="34" viewBox="0 0 34 34" fill="none" xmlns="http://www.w3.org/2000/svg">
<path d="M17 17C14.7084 17 12.7466 16.184 11.1146 14.5521C9.48268 12.9201 8.66671 10.9583 8.66671 8.66668C8.66671 6.37501 9.48268 4.41321 11.1146 2.78126C12.7466 1.14932 14.7084 0.333344 17 0.333344C19.2917 0.333344 21.2535 1.14932 22.8855 2.78126C24.5174 4.41321 25.3334 6.37501 25.3334 8.66668C25.3334 10.9583 24.5174 12.9201 22.8855 14.5521C21.2535 16.184 19.2917 17 17 17ZM0.333374 33.6667V27.8333C0.333374 26.6528 0.637541 25.5681 1.24587 24.5792C1.85421 23.5903 2.66115 22.8347 3.66671 22.3125C5.81948 21.2361 8.00698 20.4292 10.2292 19.8917C12.4514 19.3542 14.7084 19.0847 17 19.0833C19.2917 19.0833 21.5487 19.3528 23.7709 19.8917C25.9931 20.4306 28.1806 21.2375 30.3334 22.3125C31.3403 22.8333 32.148 23.5889 32.7563 24.5792C33.3646 25.5695 33.6681 26.6542 33.6667 27.8333V33.6667H0.333374ZM4.50004 29.5H29.5V27.8333C29.5 27.4514 29.4049 27.1042 29.2146 26.7917C29.0243 26.4792 28.7723 26.2361 28.4584 26.0625C26.5834 25.125 24.691 24.4222 22.7813 23.9542C20.8716 23.4861 18.9445 23.2514 17 23.25C15.0556 23.25 13.1285 23.4847 11.2188 23.9542C9.30907 24.4236 7.41671 25.1264 5.54171 26.0625C5.22921 26.2361 4.97712 26.4792 4.78546 26.7917C4.59379 27.1042 4.49865 27.4514 4.50004 27.8333V29.5ZM17 12.8333C18.1459 12.8333 19.1271 12.4257 19.9438 11.6104C20.7605 10.7951 21.1681 9.8139 21.1667 8.66668C21.1667 7.52084 20.7591 6.54029 19.9438 5.72501C19.1285 4.90973 18.1473 4.5014 17 4.50001C15.8542 4.50001 14.8737 4.90834 14.0584 5.72501C13.2431 6.54168 12.8348 7.52223 12.8334 8.66668C12.8334 9.81251 13.2417 10.7938 14.0584 11.6104C14.875 12.4271 15.8556 12.8347 17 12.8333Z" fill="#04BFAD"/>
</svg>
