<svg width="34" height="34" viewBox="0 0 34 34" fill="none" xmlns="http://www.w3.org/2000/svg">
<path d="M28.6666 3.66659H25.3333V1.99992C25.3333 1.55789 25.1577 1.13397 24.8452 0.821407C24.5326 0.508847 24.1087 0.333252 23.6666 0.333252C23.2246 0.333252 22.8007 0.508847 22.4881 0.821407C22.1756 1.13397 22 1.55789 22 1.99992V3.66659H12V1.99992C12 1.55789 11.8244 1.13397 11.5118 0.821407C11.1993 0.508847 10.7753 0.333252 10.3333 0.333252C9.89128 0.333252 9.46736 0.508847 9.1548 0.821407C8.84224 1.13397 8.66665 1.55789 8.66665 1.99992V3.66659H5.33331C4.00723 3.66659 2.73546 4.19337 1.79778 5.13105C0.860097 6.06873 0.333313 7.3405 0.333313 8.66658V28.6666C0.333313 29.9927 0.860097 31.2644 1.79778 32.2021C2.73546 33.1398 4.00723 33.6666 5.33331 33.6666H28.6666C29.9927 33.6666 31.2645 33.1398 32.2022 32.2021C33.1399 31.2644 33.6666 29.9927 33.6666 28.6666V8.66658C33.6666 7.3405 33.1399 6.06873 32.2022 5.13105C31.2645 4.19337 29.9927 3.66659 28.6666 3.66659ZM30.3333 28.6666C30.3333 29.1086 30.1577 29.5325 29.8452 29.8451C29.5326 30.1577 29.1087 30.3333 28.6666 30.3333H5.33331C4.89129 30.3333 4.46736 30.1577 4.1548 29.8451C3.84224 29.5325 3.66665 29.1086 3.66665 28.6666V16.9999H30.3333V28.6666ZM30.3333 13.6666H3.66665V8.66658C3.66665 8.22456 3.84224 7.80063 4.1548 7.48807C4.46736 7.17551 4.89129 6.99992 5.33331 6.99992H8.66665V8.66658C8.66665 9.10861 8.84224 9.53254 9.1548 9.8451C9.46736 10.1577 9.89128 10.3333 10.3333 10.3333C10.7753 10.3333 11.1993 10.1577 11.5118 9.8451C11.8244 9.53254 12 9.10861 12 8.66658V6.99992H22V8.66658C22 9.10861 22.1756 9.53254 22.4881 9.8451C22.8007 10.1577 23.2246 10.3333 23.6666 10.3333C24.1087 10.3333 24.5326 10.1577 24.8452 9.8451C25.1577 9.53254 25.3333 9.10861 25.3333 8.66658V6.99992H28.6666C29.1087 6.99992 29.5326 7.17551 29.8452 7.48807C30.1577 7.80063 30.3333 8.22456 30.3333 8.66658V13.6666Z" fill="#027368"/>
</svg>
