<svg width="41" height="41" viewBox="0 0 41 41" fill="none" xmlns="http://www.w3.org/2000/svg">
<path d="M5.5 29.9888V35.0555C5.5 35.5222 5.86667 35.8888 6.33333 35.8888H11.4C11.6167 35.8888 11.8333 35.8055 11.9833 35.6388L30.1833 17.4555L23.9333 11.2055L5.75 29.3888C5.58333 29.5555 5.5 29.7555 5.5 29.9888ZM35.0167 12.6222C35.1712 12.468 35.2937 12.2848 35.3774 12.0832C35.461 11.8816 35.5041 11.6655 35.5041 11.4472C35.5041 11.2289 35.461 11.0128 35.3774 10.8111C35.2937 10.6095 35.1712 10.4264 35.0167 10.2722L31.1167 6.37217C30.9625 6.21767 30.7793 6.09509 30.5777 6.01145C30.3761 5.92782 30.1599 5.88477 29.9417 5.88477C29.7234 5.88477 29.5072 5.92782 29.3056 6.01145C29.104 6.09509 28.9209 6.21767 28.7667 6.37217L25.7167 9.42217L31.9667 15.6722L35.0167 12.6222Z" fill="#04BFAD"/>
</svg>
