<svg width="550" height="300" viewBox="0 0 550 300" fill="none" xmlns="http://www.w3.org/2000/svg">
<g clip-path="url(#clip0_302_2275)">
<path d="M276.038 300.425C393.829 300.425 489.317 294.851 489.317 287.975C489.317 281.099 393.829 275.525 276.038 275.525C158.247 275.525 62.7588 281.099 62.7588 287.975C62.7588 294.851 158.247 300.425 276.038 300.425Z" fill="#EBF8F6"/>
<path d="M448.417 270.898C448.417 270.898 454.214 243.529 443.665 228.701C433.116 213.873 453.191 228.525 455.501 242.407C455.501 242.407 458.966 217.591 448.736 200.123C438.506 182.655 457.646 196.999 459.274 214.995C459.274 214.995 462.409 192.852 457.712 180.411C453.015 167.97 461.188 176.011 464.312 183.766C467.436 191.521 463.322 210.881 463.322 210.881C463.322 210.881 471.528 175.164 479.305 178.013C487.082 180.862 467.689 204.248 465.005 216.425C465.005 216.425 474.168 200.046 481.12 203.456C488.072 206.866 470.351 208.56 462.244 232.98L459.395 244.431C459.395 244.431 467.821 228.272 473.332 233.365C478.843 238.458 457.008 247.27 451.926 271.756L448.417 270.898Z" fill="#04BFAD"/>
<path d="M449.55 272.471C449.55 272.471 450.771 237.963 467.821 223.355C484.871 208.747 456.458 220.308 449.55 236.247C449.55 236.247 452.85 205.447 470.263 187.627C487.676 169.807 460.517 181.225 453.202 202.29C453.202 202.29 456.051 174.79 465.39 161.336C474.729 147.883 462.541 154.978 456.458 163.383C450.375 171.787 449.55 196.152 449.55 196.152C449.55 196.152 450.364 150.93 440.211 152.019C430.058 153.108 446.305 186.912 445.898 202.29C445.898 202.29 439.804 179.938 430.498 181.962C421.192 183.986 441.872 191.279 444.303 222.948V237.512C444.303 237.512 439.001 215.655 430.872 220.055C422.743 224.455 446.272 241.571 445.084 272.427L449.55 272.471Z" fill="#04BFAD"/>
<path opacity="0.2" d="M449.55 272.471C449.55 272.471 450.771 237.963 467.821 223.355C484.871 208.747 456.458 220.308 449.55 236.247C449.55 236.247 452.85 205.447 470.263 187.627C487.676 169.807 460.517 181.225 453.202 202.29C453.202 202.29 456.051 174.79 465.39 161.336C474.729 147.883 462.541 154.978 456.458 163.383C450.375 171.787 449.55 196.152 449.55 196.152C449.55 196.152 450.364 150.93 440.211 152.019C430.058 153.108 446.305 186.912 445.898 202.29C445.898 202.29 439.804 179.938 430.498 181.962C421.192 183.986 441.872 191.279 444.303 222.948V237.512C444.303 237.512 439.001 215.655 430.872 220.055C422.743 224.455 446.272 241.571 445.084 272.427L449.55 272.471Z" fill="white"/>
<path d="M460.561 287.97H434.612C431.403 287.97 428.325 286.695 426.056 284.426C423.787 282.157 422.512 279.079 422.512 275.87V270.458H472.661V275.87C472.661 279.079 471.386 282.157 469.117 284.426C466.848 286.695 463.77 287.97 460.561 287.97Z" fill="#263238"/>
<path d="M479.272 267.576V271.393C479.272 272.621 478.784 273.799 477.916 274.667C477.047 275.536 475.869 276.024 474.641 276.024H420.631C420.022 276.025 419.42 275.907 418.857 275.674C418.295 275.442 417.784 275.101 417.353 274.671C416.923 274.24 416.582 273.729 416.35 273.167C416.117 272.604 415.999 272.001 416 271.393V267.576H479.272Z" fill="#263238"/>
<path opacity="0.2" d="M479.272 267.576V271.393C479.272 272.621 478.784 273.799 477.916 274.667C477.047 275.536 475.869 276.024 474.641 276.024H420.631C420.022 276.025 419.42 275.907 418.857 275.674C418.295 275.442 417.784 275.101 417.353 274.671C416.923 274.24 416.582 273.729 416.35 273.167C416.117 272.604 415.999 272.001 416 271.393V267.576H479.272Z" fill="white"/>
<path d="M357.522 200.745H239.811V284.851H357.522V200.745Z" fill="#2E353A"/>
<path opacity="0.2" d="M357.522 200.745H239.811V284.851H357.522V200.745Z" fill="white"/>
<path opacity="0.2" d="M308.429 200.745H239.811V284.851H308.429V200.745Z" fill="white"/>
<path d="M361.933 279.439H235.741L232.441 286.93H365.233L361.933 279.439Z" fill="#2E353A"/>
<path opacity="0.2" d="M306.933 279.439H235.741L232.441 286.93H305.833L306.933 279.439Z" fill="white"/>
<path d="M222.354 101.975H279.158L297.803 143.204H346.643C349.528 143.204 352.296 144.35 354.336 146.39C356.376 148.43 357.522 151.197 357.522 154.083V192.363C357.524 193.685 357.264 194.995 356.759 196.218C356.254 197.44 355.513 198.551 354.578 199.487C353.643 200.423 352.533 201.165 351.311 201.672C350.09 202.178 348.78 202.439 347.457 202.439H259.094L213.235 117.232C212 114.927 211.678 112.241 212.333 109.708C212.916 107.494 214.215 105.535 216.027 104.136C217.84 102.737 220.065 101.978 222.354 101.975Z" fill="#04BFAD"/>
<path opacity="0.5" d="M357.522 154.116V192.396C357.523 194.977 356.533 197.46 354.756 199.333C352.98 201.206 350.552 202.325 347.974 202.461H259.094L213.235 117.254C212.39 115.677 211.967 113.907 212.009 112.117C212.051 110.328 212.555 108.58 213.474 107.043C214.392 105.507 215.693 104.234 217.249 103.35C218.805 102.466 220.564 102 222.354 101.997H279.158L297.803 143.226H347.094C349.903 143.339 352.559 144.537 354.504 146.568C356.448 148.599 357.53 151.304 357.522 154.116Z" fill="white"/>
<path opacity="0.2" d="M357.522 154.116V192.396C357.523 194.977 356.533 197.46 354.756 199.333C352.98 201.206 350.552 202.325 347.974 202.461H347.809C345.437 202.345 343.2 201.321 341.561 199.601C339.923 197.881 339.009 195.596 339.009 193.221V152.411C339.008 150.16 339.829 147.987 341.318 146.299C342.807 144.612 344.861 143.526 347.094 143.248C349.9 143.361 352.552 144.556 354.496 146.582C356.44 148.608 357.525 151.308 357.522 154.116Z" fill="black"/>
<path opacity="0.2" d="M339.031 179.416V202.461H259.094L213.235 117.254C212.493 115.875 212.074 114.346 212.009 112.781C211.944 111.216 212.235 109.657 212.86 108.221C213.484 106.785 214.427 105.509 215.616 104.49C216.805 103.471 218.21 102.736 219.725 102.338C221.277 102.715 222.734 103.408 224.006 104.373C225.278 105.338 226.337 106.555 227.117 107.948L267.124 179.449L339.031 179.416Z" fill="white"/>
<path d="M369.556 184.894H258.709C252.537 184.894 247.533 189.897 247.533 196.07C247.533 202.242 252.537 207.246 258.709 207.246H369.556C375.729 207.246 380.732 202.242 380.732 196.07C380.732 189.897 375.729 184.894 369.556 184.894Z" fill="#04BFAD"/>
<path opacity="0.5" d="M380.732 196.07C380.729 199.033 379.551 201.874 377.456 203.969C375.36 206.064 372.519 207.243 369.556 207.246H258.72C257.253 207.246 255.799 206.957 254.443 206.395C253.087 205.833 251.855 205.01 250.818 203.972C249.78 202.935 248.957 201.703 248.395 200.347C247.833 198.991 247.544 197.537 247.544 196.07C247.544 194.602 247.833 193.149 248.395 191.793C248.957 190.437 249.78 189.205 250.818 188.167C251.855 187.129 253.087 186.306 254.443 185.744C255.799 185.183 257.253 184.894 258.72 184.894H369.556C372.52 184.894 375.363 186.071 377.459 188.167C379.555 190.263 380.732 193.106 380.732 196.07Z" fill="white"/>
<path opacity="0.2" d="M321.332 196.07C321.329 199.033 320.151 201.874 318.056 203.969C315.96 206.064 313.119 207.243 310.156 207.246H236.72C235.253 207.246 233.799 206.957 232.443 206.395C231.087 205.833 229.855 205.01 228.818 203.972C227.78 202.935 226.957 201.703 226.395 200.347C225.833 198.991 225.544 197.537 225.544 196.07C225.544 194.602 225.833 193.149 226.395 191.793C226.957 190.437 227.78 189.205 228.818 188.167C229.855 187.129 231.087 186.306 232.443 185.744C233.799 185.183 235.253 184.894 236.72 184.894H310.156C313.12 184.894 315.963 186.071 318.059 188.167C320.155 190.263 321.332 193.106 321.332 196.07Z" fill="white"/>
<path d="M435.457 240.213L398.882 195.168C397.751 193.773 396.292 192.679 394.636 191.984C392.98 191.289 391.177 191.015 389.389 191.186H342.914C340.102 190.941 337.304 191.801 335.115 193.584C333.997 194.488 333.068 195.605 332.382 196.869C331.696 198.134 331.266 199.521 331.118 200.952C330.97 202.383 331.106 203.829 331.518 205.208C331.93 206.586 332.611 207.869 333.52 208.984L370.106 254.084C371.126 255.343 372.413 256.358 373.874 257.057C375.336 257.755 376.935 258.119 378.554 258.121H426.866C428.94 258.142 430.977 257.573 432.739 256.479C434.501 255.385 435.916 253.812 436.817 251.944C437.718 250.076 438.069 247.99 437.828 245.93C437.587 243.871 436.765 241.922 435.457 240.312V240.213Z" fill="#04BFAD"/>
<path opacity="0.2" d="M385.462 255.58C384.348 256.491 383.065 257.172 381.687 257.586C380.308 257.999 378.862 258.135 377.43 257.987C375.999 257.838 374.611 257.409 373.347 256.722C372.082 256.035 370.966 255.105 370.062 253.985L333.487 208.885C332.576 207.771 331.893 206.489 331.479 205.111C331.065 203.733 330.928 202.287 331.075 200.855C331.223 199.424 331.651 198.036 332.337 196.771C333.023 195.506 333.952 194.389 335.071 193.485C336.186 192.576 337.469 191.896 338.846 191.484C340.224 191.071 341.669 190.935 343.1 191.082C344.53 191.229 345.918 191.657 347.183 192.341C348.448 193.025 349.565 193.952 350.471 195.069L387.046 240.114C387.967 241.229 388.656 242.517 389.075 243.901C389.494 245.285 389.634 246.739 389.487 248.178C389.339 249.617 388.908 251.012 388.217 252.283C387.526 253.553 386.59 254.674 385.462 255.58Z" fill="white"/>
<path opacity="0.5" d="M435.457 240.213L398.882 195.168C397.751 193.773 396.292 192.679 394.636 191.984C392.98 191.289 391.177 191.015 389.389 191.186H342.914C340.102 190.941 337.304 191.801 335.115 193.584C333.997 194.488 333.068 195.605 332.382 196.869C331.696 198.134 331.266 199.521 331.118 200.952C330.97 202.383 331.106 203.829 331.518 205.208C331.93 206.586 332.611 207.869 333.52 208.984L370.106 254.084C371.126 255.343 372.413 256.358 373.874 257.057C375.336 257.755 376.935 258.119 378.554 258.121H426.866C428.94 258.142 430.977 257.573 432.739 256.479C434.501 255.385 435.916 253.812 436.817 251.944C437.718 250.076 438.069 247.99 437.828 245.93C437.587 243.871 436.765 241.922 435.457 240.312V240.213Z" fill="white"/>
<path d="M252.989 108.938C252.946 108.94 252.903 108.931 252.865 108.912C252.826 108.893 252.793 108.864 252.769 108.828C249.7 104.747 251.075 95.3314 253.418 90.3703C254.027 89.083 254.283 87.6568 254.16 86.238C254.036 84.8192 253.537 83.4588 252.714 82.2963C252.688 82.2686 252.668 82.2358 252.655 82.1999C252.642 82.1641 252.637 82.1259 252.64 82.0879C252.643 82.05 252.653 82.0129 252.671 81.9793C252.689 81.9456 252.713 81.9159 252.743 81.8923C252.773 81.8686 252.807 81.8513 252.844 81.8416C252.881 81.8319 252.919 81.83 252.957 81.8359C252.995 81.8418 253.031 81.8555 253.063 81.876C253.095 81.8966 253.122 81.9236 253.143 81.9553C254.03 83.1995 254.568 84.6576 254.704 86.1793C254.839 87.7009 254.566 89.2312 253.913 90.6123C251.636 95.4414 250.261 104.582 253.209 108.498C253.231 108.527 253.247 108.56 253.256 108.595C253.265 108.63 253.267 108.667 253.261 108.702C253.256 108.738 253.244 108.772 253.226 108.804C253.207 108.835 253.183 108.862 253.154 108.883C253.107 108.921 253.049 108.94 252.989 108.938Z" fill="#263238"/>
<path d="M251.504 82.3733C251.504 82.3733 243.276 70.0973 252.736 60.6152C260.381 52.9152 274.857 54.3782 282.26 68.5903C289.146 81.7903 282.128 83.3963 291.06 89.0723C299.992 94.7483 300.718 100.6 295.46 111.6C290.202 122.6 275.506 127.946 265.947 122.468C256.388 116.99 252.406 99.3684 254.881 91.5033C257.356 83.6383 251.504 82.3733 251.504 82.3733Z" fill="#263238"/>
<path d="M300.586 102.25H300.498C300.43 102.228 300.374 102.179 300.341 102.116C300.308 102.052 300.301 101.978 300.322 101.909C301.862 97.0034 296.934 92.9224 292.622 89.3253C290.726 87.9019 289.008 86.2546 287.507 84.4193C286.231 82.5493 286 80.1843 285.747 77.4343C285.318 72.8693 284.834 67.6993 279.422 62.5952C270.908 54.5432 260.623 58.9982 260.524 59.0422C260.491 59.0584 260.455 59.0675 260.419 59.069C260.382 59.0705 260.345 59.0643 260.311 59.0508C260.277 59.0374 260.246 59.017 260.22 58.9909C260.194 58.9648 260.174 58.9335 260.161 58.8992C260.131 58.8335 260.128 58.7586 260.153 58.6906C260.177 58.6227 260.228 58.5672 260.293 58.5362C260.403 58.5362 271.007 53.8942 279.807 62.1992C285.362 67.4463 285.879 72.9573 286.297 77.3903C286.55 80.0523 286.759 82.3513 287.969 84.1003C289.433 85.9025 291.114 87.517 292.974 88.9073C297.44 92.6143 302.511 96.8164 300.861 102.107C300.835 102.156 300.795 102.196 300.746 102.221C300.697 102.247 300.641 102.257 300.586 102.25Z" fill="#263238"/>
<path d="M334.136 137.956L340.736 140.278C340.736 140.278 349.404 140.586 350.361 140.96C351.318 141.334 351.461 148.352 351.549 149.111C351.637 149.87 343.057 150.299 342.1 149.628C341.143 148.957 340.23 146.152 340.23 146.152L331.43 142.335L334.136 137.956Z" fill="#EBB376"/>
<path d="M339.031 139.045L336.831 144.788C336.831 144.788 325.831 142.588 316.371 140.288C310.167 138.77 304.623 137.208 303.336 136.174C301.554 134.755 297.396 125.9 293.975 118.134C291.104 111.6 288.75 105.814 288.75 105.814L291.841 102.668C298.76 105.055 310.024 128.793 310.024 128.793L339.031 139.045Z" fill="#04BFAD"/>
<path opacity="0.2" d="M316.393 140.289C310.189 138.77 304.645 137.209 303.358 136.174C301.576 134.755 297.418 125.9 293.997 118.134L296.714 113.646C296.714 113.646 308.902 126.274 316.393 140.289Z" fill="black"/>
<path d="M432.421 232.513L427.526 236.451L421.245 230.28L415.492 224.615L420.541 218.994L426.833 226.155L432.421 232.513Z" fill="#EBB376"/>
<path d="M426.294 237.595C425.755 237.155 431.365 230.742 431.365 230.742C431.365 230.742 438.779 229.829 442.827 226.529C446.875 223.229 447.557 227.332 444.103 231.842L435.534 242.996C433.092 246.197 431.904 242.116 426.294 237.595Z" fill="#2E353A"/>
<path d="M432.74 230.72H432.685C432.614 230.701 432.552 230.658 432.509 230.599C432.509 230.522 431.31 228.729 431.64 227.508C431.689 227.318 431.779 227.142 431.902 226.99C432.025 226.838 432.18 226.715 432.355 226.628C432.494 226.525 432.661 226.47 432.834 226.47C433.006 226.47 433.174 226.525 433.312 226.628C433.469 226.869 433.571 227.142 433.613 227.426C433.655 227.711 433.635 228.002 433.554 228.278C433.852 227.767 434.281 227.345 434.797 227.057C434.917 227.005 435.046 226.978 435.177 226.978C435.307 226.978 435.436 227.005 435.556 227.057C436.062 227.277 436.172 227.585 436.183 227.816C436.183 228.916 433.422 230.423 432.883 230.709L432.74 230.72ZM435.193 227.497C435.128 227.483 435.061 227.483 434.995 227.497C434.379 227.75 433.708 228.938 433.29 229.807C434.39 229.147 435.666 228.256 435.644 227.761C435.644 227.662 435.545 227.563 435.347 227.486C435.296 227.478 435.243 227.482 435.193 227.497ZM432.894 227.002C432.789 227.011 432.687 227.044 432.597 227.101C432.488 227.152 432.392 227.227 432.316 227.32C432.24 227.413 432.185 227.523 432.157 227.64C432.084 228.409 432.261 229.18 432.663 229.84C433.037 228.586 433.224 227.299 432.96 227.068L432.894 227.002Z" fill="#577AFA"/>
<path opacity="0.2" d="M426.954 226.298L421.355 230.412L415.547 224.681L420.563 219.027L426.954 226.298Z" fill="black"/>
<path d="M309.606 142.588L315.931 153.522C315.931 153.522 371.162 163.796 379.28 168.548C387.398 173.3 423.28 221.92 423.28 221.92L416.394 227.189L360.987 183.541L297.781 177.392L309.606 142.588Z" fill="#2E353A"/>
<path opacity="0.3" d="M309.606 142.588L315.931 153.522C315.931 153.522 371.162 163.796 379.28 168.548C387.398 173.3 423.28 221.92 423.28 221.92L416.394 227.189L360.987 183.541L297.781 177.392L309.606 142.588Z" fill="black"/>
<path d="M419.87 234.68L415.217 238.904L408.573 233.118L402.49 227.794L407.198 221.887L413.908 228.663L419.87 234.68Z" fill="#EBB376"/>
<path d="M414.04 238.695C413.589 238.167 420.288 232.898 420.288 232.898C420.288 232.898 427.746 233.36 432.322 230.863C436.898 228.366 436.832 232.524 432.597 236.363L422.136 245.757C419.122 248.408 418.704 244.162 414.04 238.695Z" fill="#2E353A"/>
<path d="M421.663 233.129H421.575L421.498 233.074C421.474 233.057 421.455 233.034 421.443 233.008C421.443 232.931 420.607 230.951 421.157 229.807C421.239 229.63 421.358 229.472 421.506 229.345C421.654 229.218 421.828 229.124 422.015 229.07C422.554 228.916 422.829 229.07 422.961 229.246C423.225 229.576 423.126 230.236 422.895 230.918C423.279 230.468 423.777 230.13 424.336 229.939C424.465 229.91 424.599 229.906 424.729 229.929C424.859 229.952 424.984 230 425.095 230.071C425.251 230.149 425.379 230.273 425.462 230.427C425.545 230.58 425.578 230.756 425.557 230.929C425.392 232.029 422.367 232.986 421.762 233.129H421.663ZM424.545 230.401H424.424C423.775 230.544 422.895 231.578 422.323 232.359C423.566 231.919 424.941 231.259 425.018 230.786C425.018 230.687 424.952 230.577 424.776 230.456C424.706 230.415 424.626 230.396 424.545 230.401ZM422.345 229.499C422.261 229.486 422.176 229.486 422.092 229.499C421.974 229.527 421.863 229.583 421.77 229.661C421.676 229.739 421.602 229.838 421.553 229.95C421.357 230.676 421.396 231.446 421.663 232.15C422.257 230.984 422.686 229.752 422.466 229.477C422.443 229.48 422.42 229.487 422.4 229.499H422.345Z" fill="#577AFA"/>
<path opacity="0.2" d="M414.04 228.806L408.694 233.239L402.545 227.86L407.231 221.92L414.04 228.806Z" fill="black"/>
<path d="M411.312 223.603L403.612 231.171C377.531 211.371 353.749 190.405 353.749 190.405C315.898 195.597 287.155 189.69 283.888 187.842C269.192 179.504 276.188 150.354 276.188 150.354L307.824 139.045C310.486 142.818 312.224 151.564 313.093 157.141C313.555 160.056 313.775 162.102 313.775 162.102C349.646 169.604 361.427 169.45 367.675 176.633C373.153 182.936 411.312 223.603 411.312 223.603Z" fill="#2E353A"/>
<path d="M402.402 230.28L410.762 221.172L413.259 225.924L406.373 233.206L402.402 230.28Z" fill="#04BFAD"/>
<path opacity="0.5" d="M276.188 150.343L275.781 154.094L309.606 142.587L307.714 138.671L276.188 150.343Z" fill="black"/>
<path d="M293.942 143.941L295.416 147.593C295.497 147.784 295.648 147.938 295.838 148.021C296.028 148.105 296.243 148.113 296.439 148.044L301.345 146.207C301.444 146.17 301.535 146.114 301.613 146.042C301.69 145.97 301.752 145.884 301.796 145.788C301.84 145.692 301.865 145.588 301.869 145.482C301.872 145.377 301.855 145.271 301.818 145.173L300.399 141.553C300.323 141.361 300.174 141.206 299.985 141.122C299.796 141.037 299.581 141.03 299.387 141.103L294.415 142.885C294.314 142.921 294.22 142.978 294.141 143.051C294.062 143.125 293.998 143.213 293.954 143.312C293.91 143.41 293.886 143.517 293.884 143.625C293.882 143.733 293.902 143.84 293.942 143.941Z" fill="white"/>
<path d="M285.659 146.79L286.517 151.333L285.274 151.696L284.207 147.197L285.659 146.79Z" fill="#263238"/>
<path d="M303.358 140.288L305.173 144.788L306.317 144.458L304.546 139.738L303.358 140.288Z" fill="#263238"/>
<path opacity="0.3" d="M313.775 162.102L306.317 160.804L313.093 157.141C313.555 160.056 313.775 162.102 313.775 162.102Z" fill="black"/>
<path d="M414.414 227.233L422.895 218.235L425.326 223.02L418.341 230.214L414.414 227.233Z" fill="#04BFAD"/>
<path d="M308.429 140.146L276.188 150.354C270.34 143.753 264.938 136.771 260.018 129.453C257.469 125.649 255.201 121.664 253.231 117.529C251.152 113.041 249.832 108.729 249.931 105.165C249.931 105.165 252.043 104.439 255.607 103.603C265.456 101.201 275.647 100.531 285.725 101.623C287.8 101.885 289.859 102.252 291.896 102.723L308.429 140.146Z" fill="#04BFAD"/>
<path d="M267.322 97.9274C267.811 100.378 267.811 102.901 267.322 105.352L278.487 103.152C276.342 101.887 275.286 93.8244 274.758 90.5243C274.494 88.9513 274.362 87.4883 274.296 86.4763C274.23 85.4643 274.23 85.0683 274.23 85.0683L270.204 87.1473L263.604 90.5353C265.293 92.7466 266.554 95.2535 267.322 97.9274Z" fill="#EBB376"/>
<path opacity="0.2" d="M263.681 90.5573C265.34 92.7679 266.574 95.2668 267.322 97.9274C270.615 96.4396 273.264 93.8209 274.791 90.5463C274.527 88.9733 274.395 87.5103 274.329 86.4983C272.888 86.7073 271.524 86.9383 270.237 87.1693L263.681 90.5573Z" fill="black"/>
<path d="M267.124 58.2722C267.124 58.2722 248.732 52.2882 243.947 69.8003C239.162 87.3123 253.231 86.0473 253.231 86.0473L267.124 58.2722Z" fill="#263238"/>
<path d="M259.094 64.7732C250.415 67.2593 248.952 72.7043 250.877 81.8343C253.275 93.2413 258.027 100.468 268.202 95.0343C282.051 87.5103 273.537 60.6152 259.094 64.7732Z" fill="#EBB376"/>
<path d="M256.377 79.7333C256.056 81.2332 255.553 82.6885 254.881 84.0673C255.239 84.3534 255.669 84.5347 256.123 84.591C256.577 84.6473 257.039 84.5765 257.455 84.3863L256.377 79.7333Z" fill="#D58745"/>
<path d="M261.492 77.5113C261.679 78.2263 262.218 78.7103 262.691 78.6113C263.164 78.5123 263.406 77.8083 263.219 77.0933C263.032 76.3783 262.493 75.8943 262.02 75.9933C261.547 76.0923 261.294 76.7853 261.492 77.5113Z" fill="#263238"/>
<path d="M262.229 76.0153L260.502 75.8173C260.502 75.8173 261.624 76.8733 262.229 76.0153Z" fill="#263238"/>
<path d="M252.494 79.6893C252.681 80.4043 253.22 80.8883 253.693 80.7893C254.166 80.6903 254.408 79.9753 254.221 79.2603C254.034 78.5453 253.495 78.0613 253.022 78.1603C252.549 78.2593 252.34 78.9743 252.494 79.6893Z" fill="#263238"/>
<path d="M253.264 78.1493L251.537 77.9403C251.537 77.9403 252.659 79.0513 253.264 78.1493Z" fill="#263238"/>
<path d="M264 72.1213C263.919 72.12 263.839 72.0972 263.769 72.0553C263.2 71.7399 262.566 71.5582 261.916 71.5239C261.267 71.4896 260.617 71.6036 260.018 71.8573C259.92 71.8953 259.811 71.8949 259.713 71.8562C259.615 71.8174 259.536 71.7432 259.49 71.6483C259.449 71.5504 259.448 71.4404 259.487 71.3418C259.526 71.2432 259.602 71.1637 259.699 71.1203C260.424 70.8108 261.211 70.6745 261.998 70.7222C262.784 70.77 263.549 71.0004 264.231 71.3953C264.315 71.4589 264.373 71.5522 264.391 71.6563C264.409 71.7604 264.388 71.8676 264.33 71.9563C264.292 72.0078 264.242 72.0496 264.185 72.0783C264.128 72.107 264.064 72.1217 264 72.1213Z" fill="#263238"/>
<path d="M250.184 75.0253C250.092 75.0282 250.002 74.9968 249.931 74.9373C249.894 74.9005 249.865 74.8568 249.845 74.8086C249.825 74.7605 249.815 74.7089 249.815 74.6568C249.815 74.6047 249.825 74.553 249.845 74.5049C249.865 74.4568 249.894 74.4131 249.931 74.3763C250.35 73.8165 250.89 73.3593 251.511 73.0391C252.133 72.7189 252.818 72.5443 253.517 72.5283C253.622 72.5283 253.723 72.57 253.797 72.6443C253.871 72.7185 253.913 72.8193 253.913 72.9243C253.913 73.0293 253.871 73.13 253.797 73.2043C253.723 73.2786 253.622 73.3203 253.517 73.3203C252.943 73.3466 252.382 73.5016 251.875 73.7739C251.369 74.0462 250.93 74.4287 250.591 74.8933C250.543 74.9519 250.479 74.9956 250.407 75.019C250.335 75.0424 250.258 75.0446 250.184 75.0253Z" fill="#263238"/>
<path d="M272.8 76.6863C272.8 76.6863 266.695 70.7133 265.694 65.0152C265.694 65.0152 246.477 62.9032 250.635 80.6133C250.635 80.6133 244.508 65.5872 259.336 60.9672C274.164 56.3472 280.346 78.2043 274.505 86.9163C274.549 86.9383 276.584 80.4153 272.8 76.6863Z" fill="#263238"/>
<path d="M259.457 88.2803C259.377 88.2784 259.299 88.2535 259.233 88.2087C259.167 88.1638 259.115 88.1009 259.083 88.0273C259.048 87.9266 259.053 87.816 259.098 87.7193C259.144 87.6226 259.225 87.5475 259.325 87.5103C262.317 86.4103 262.383 84.2983 262.383 84.2103C262.383 84.1583 262.394 84.1068 262.413 84.0588C262.433 84.0107 262.462 83.9671 262.499 83.9303C262.536 83.8935 262.58 83.8644 262.628 83.8445C262.676 83.8246 262.727 83.8143 262.779 83.8143C262.884 83.8143 262.985 83.856 263.059 83.9303C263.134 84.0046 263.175 84.1053 263.175 84.2103C263.175 84.3203 263.175 86.9493 259.6 88.2583C259.555 88.2762 259.506 88.2837 259.457 88.2803Z" fill="#263238"/>
<path d="M251.537 84.5183C252.887 83.4326 254.473 82.679 256.168 82.3183C259.83 82.0763 263.501 82.0285 267.168 82.1753L271.876 91.4924C271.876 91.4924 267.828 96.6624 259.017 96.8494C258.973 96.8494 252.494 93.8573 251.537 84.5183Z" fill="#04BFAD"/>
<path opacity="0.5" d="M251.537 84.5183C252.887 83.4326 254.473 82.679 256.168 82.3183C259.83 82.0763 263.501 82.0285 267.168 82.1753L271.876 91.4924C271.876 91.4924 267.828 96.6624 259.017 96.8494C258.973 96.8494 252.494 93.8573 251.537 84.5183Z" fill="white"/>
<path d="M271.128 91.7673C271.056 91.7634 270.986 91.7364 270.93 91.6903C270.879 91.6371 270.851 91.5661 270.851 91.4923C270.851 91.4185 270.879 91.3476 270.93 91.2943C273.863 88.5795 275.603 84.815 275.77 80.8223C275.874 79.0505 275.287 77.3076 274.131 75.9603C274.004 75.8166 273.842 75.7086 273.661 75.6469C273.48 75.5851 273.285 75.5718 273.097 75.6083C271.04 75.9933 268.257 81.3063 267.366 83.3083C267.335 83.3764 267.278 83.4294 267.208 83.4562C267.138 83.4829 267.061 83.4812 266.992 83.4513C266.927 83.4203 266.876 83.3648 266.852 83.2969C266.827 83.229 266.83 83.154 266.86 83.0883C266.992 82.7803 270.237 75.5753 272.987 75.0583C273.263 75.0015 273.549 75.0172 273.817 75.104C274.085 75.1907 274.326 75.3455 274.516 75.5533C275.776 77.0062 276.422 78.8912 276.32 80.8113C276.153 84.953 274.354 88.8602 271.315 91.6793C271.263 91.7273 271.198 91.7581 271.128 91.7673Z" fill="white"/>
<path d="M271.909 78.9193C271.705 77.8911 271.917 76.8239 272.499 75.9517C273.08 75.0794 273.984 74.4733 275.011 74.2663C277.783 73.7933 280.643 78.9523 274.34 82.1863C273.394 82.6153 272.624 81.8783 271.909 78.9193Z" fill="#EBB376"/>
<path d="M279.675 110.5C268.884 111.314 259.05 105.792 255.574 103.57C265.423 101.168 275.614 100.498 285.692 101.59C287.342 105.176 287.859 109.873 279.675 110.5Z" fill="#EBB376"/>
<path opacity="0.2" d="M260.018 129.42C257.469 125.616 255.201 121.631 253.231 117.496C254.307 116.217 255.682 115.223 257.235 114.603C257.235 114.603 262.944 122.336 260.018 129.42Z" fill="black"/>
<path d="M235.048 146.79H278.157C280.068 146.79 281.901 147.549 283.252 148.9C284.603 150.251 285.362 152.084 285.362 153.995V199.095C285.362 201.16 284.542 203.141 283.081 204.602C281.621 206.062 279.64 206.883 277.574 206.883H236.17C233.962 206.883 231.844 206.005 230.282 204.444C228.721 202.882 227.843 200.764 227.843 198.556V153.995C227.843 152.084 228.602 150.251 229.954 148.9C231.305 147.549 233.137 146.79 235.048 146.79Z" fill="#04BFAD"/>
<path opacity="0.5" d="M285.362 153.995V199.095C285.367 200.94 284.716 202.728 283.525 204.138C282.334 205.548 280.682 206.49 278.861 206.795C278.44 206.87 278.013 206.907 277.585 206.905H236.17C233.962 206.905 231.844 206.027 230.282 204.466C228.721 202.904 227.843 200.786 227.843 198.578V153.995C227.843 152.084 228.602 150.251 229.954 148.9C231.305 147.549 233.137 146.79 235.048 146.79H278.168C278.315 146.779 278.462 146.779 278.608 146.79C280.441 146.902 282.161 147.711 283.417 149.05C284.673 150.39 285.369 152.159 285.362 153.995Z" fill="white"/>
<path opacity="0.2" d="M285.362 153.995V199.095C285.367 200.94 284.716 202.728 283.525 204.138C282.334 205.548 280.681 206.49 278.861 206.795C276.903 206.488 275.12 205.491 273.833 203.984C272.546 202.477 271.84 200.559 271.843 198.578V153.995C271.778 153.067 271.905 152.136 272.215 151.26C272.526 150.384 273.013 149.581 273.647 148.901C274.281 148.221 275.048 147.679 275.901 147.308C276.753 146.937 277.673 146.746 278.603 146.746C279.532 146.746 280.452 146.937 281.305 147.308C282.157 147.679 282.924 148.221 283.558 148.901C284.192 149.581 284.68 150.384 284.99 151.26C285.3 152.136 285.427 153.067 285.362 153.995Z" fill="black"/>
<path d="M256.707 143.236L263.307 145.558C263.307 145.558 271.986 145.866 272.932 146.24C273.878 146.614 274.032 153.632 274.12 154.391C274.208 155.15 265.628 155.59 264.682 154.919C263.736 154.248 262.812 151.432 262.812 151.432L254.012 148.407L256.707 143.236Z" fill="#EBB376"/>
<path d="M249.898 105.132C243.716 107.442 231.033 133.798 231.033 139.045C231.033 144.293 261.635 150.046 261.635 150.046L264.561 145.646C264.561 145.646 243.419 137.593 242.748 135.745C242.077 133.897 255.343 118.915 255.343 118.915C255.343 118.915 256.718 113.107 255.343 110.555C253.968 108.003 249.898 105.132 249.898 105.132Z" fill="#EBB376"/>
<path d="M249.898 105.132C247.368 104.109 241.34 112.964 241.34 112.964L254.397 122.215L256.509 120.532C256.509 120.532 260.634 109.488 249.898 105.132Z" fill="#04BFAD"/>
<path d="M239.811 113.646L240.845 110.577L255.266 122.237L254.243 123.48L239.811 113.646Z" fill="#04BFAD"/>
<path opacity="0.6" d="M239.811 113.646L240.845 110.577L255.266 122.237L254.243 123.48L239.811 113.646Z" fill="white"/>
<path d="M192.428 101.663L185.465 106.228L182.968 99.7598L190.14 96.1518L192.428 101.663Z" fill="#E4897B"/>
<path d="M155.655 105.689C155.765 105.942 162.739 113.895 166.919 114.808C171.099 115.721 187.038 106.602 187.038 106.602L183.441 97.5708C183.441 97.5708 170.494 102.246 169.405 102.785C168.316 103.324 164.4 98.0438 164.4 98.0438L155.655 105.689Z" fill="#04BFAD"/>
<path opacity="0.1" d="M155.655 105.689C155.765 105.942 162.739 113.895 166.919 114.808C171.099 115.721 187.038 106.602 187.038 106.602L183.441 97.5708C183.441 97.5708 170.494 102.246 169.405 102.785C168.316 103.324 164.4 98.0438 164.4 98.0438L155.655 105.689Z" fill="white"/>
<path d="M188.072 96.0088L191.262 104.259L193.726 102.488L196.74 102.136C198.28 101.96 204.913 97.3288 205.254 96.6358C205.595 95.9429 200.667 85.383 200.381 85.57C200.095 85.757 190.734 91.3669 190.228 91.5649C189.722 91.7629 189.491 95.4039 189.491 95.4039L188.072 96.0088Z" fill="#04BFAD"/>
<path opacity="0.8" d="M188.072 96.0088L191.262 104.259L193.726 102.488L196.74 102.136C198.28 101.96 204.913 97.3288 205.254 96.6358C205.595 95.9429 200.667 85.383 200.381 85.57C200.095 85.757 190.734 91.3669 190.228 91.5649C189.722 91.7629 189.491 95.4039 189.491 95.4039L188.072 96.0088Z" fill="white"/>
<path d="M195.719 95.4038L196.987 96.257L201.929 88.9091L200.66 88.0559L195.719 95.4038Z" fill="#04BFAD"/>
<path opacity="0.3" d="M195.719 95.4038L196.987 96.257L201.929 88.9091L200.66 88.0559L195.719 95.4038Z" fill="white"/>
<path d="M194.678 95.3284L197.444 97.1883L197.873 96.5494L195.108 94.6895L194.678 95.3284Z" fill="#04BFAD"/>
<path opacity="0.5" d="M194.678 95.3284L197.444 97.1883L197.873 96.5494L195.108 94.6895L194.678 95.3284Z" fill="white"/>
<path d="M196.663 88.54L202.977 92.7859L201.657 90.0579L199.699 88.738L196.663 88.54Z" fill="#04BFAD"/>
<path d="M196.491 88.8276L202.799 93.0691L202.989 92.7862L196.681 88.5446L196.491 88.8276Z" fill="#04BFAD"/>
<path opacity="0.6" d="M196.491 88.8276L202.799 93.0691L202.989 92.7862L196.681 88.5446L196.491 88.8276Z" fill="white"/>
<path opacity="0.5" d="M196.663 88.54L202.977 92.7859L201.657 90.0579L199.699 88.738L196.663 88.54Z" fill="white"/>
<path d="M207.883 79.0801L207.509 78.8271L211.92 72.2822L211.799 73.2502L207.883 79.0801Z" fill="#04BFAD"/>
<path d="M206.684 79.3629L207.707 80.0504L208.719 78.5443L207.697 77.8568L206.684 79.3629Z" fill="#04BFAD"/>
<path opacity="0.5" d="M206.684 79.3629L207.707 80.0504L208.719 78.5443L207.697 77.8568L206.684 79.3629Z" fill="white"/>
<path d="M202.155 91.0828L198.577 88.6766L205.544 78.3165C205.622 78.2003 205.744 78.1199 205.881 78.093C206.018 78.066 206.161 78.0948 206.277 78.173L209.015 80.0145C209.132 80.0926 209.212 80.2137 209.239 80.3511C209.266 80.4885 209.237 80.631 209.159 80.7472L202.223 91.0617L202.155 91.0828Z" fill="#04BFAD"/>
<path opacity="0.6" d="M202.155 91.0828L198.577 88.6766L205.544 78.3165C205.622 78.2003 205.744 78.1199 205.881 78.093C206.018 78.066 206.161 78.0948 206.277 78.173L209.015 80.0145C209.132 80.0926 209.212 80.2137 209.239 80.3511C209.266 80.4885 209.237 80.631 209.159 80.7472L202.223 91.0617L202.155 91.0828Z" fill="white"/>
<path d="M189.601 40.5367C189.601 40.5367 185.355 69.2132 183.947 70.5552C182.539 71.8972 165.093 66.6833 165.093 66.6833L167.568 38.6557L189.601 40.5367Z" fill="#04BFAD"/>
<path opacity="0.8" d="M189.601 40.5367C189.601 40.5367 185.355 69.2132 183.947 70.5552C182.539 71.8972 165.093 66.6833 165.093 66.6833L167.568 38.6557L189.601 40.5367Z" fill="white"/>
<path d="M183.177 54.3415C182.857 55.8381 182.354 57.2899 181.681 58.6644C182.039 58.95 182.468 59.1318 182.922 59.19C183.376 59.2482 183.837 59.1806 184.255 58.9944L183.177 54.3415Z" fill="#CC6633"/>
<path d="M185.036 48.9295C184.956 48.9305 184.878 48.9033 184.816 48.8525C184.244 48.538 183.608 48.3577 182.957 48.3253C182.305 48.2929 181.654 48.4093 181.054 48.6655C180.961 48.6889 180.862 48.6782 180.775 48.6355C180.689 48.5928 180.62 48.5208 180.582 48.4323C180.544 48.3438 180.538 48.2446 180.566 48.1524C180.594 48.0601 180.654 47.9808 180.735 47.9285C181.46 47.619 182.247 47.4828 183.034 47.5305C183.82 47.5782 184.585 47.8087 185.267 48.2035C185.353 48.2635 185.412 48.355 185.43 48.4581C185.449 48.5612 185.426 48.6674 185.366 48.7535C185.331 48.8092 185.283 48.8548 185.225 48.8857C185.167 48.9166 185.102 48.9317 185.036 48.9295Z" fill="#263238"/>
<path d="M183.056 51.7455C182.836 52.4495 183.056 53.1425 183.507 53.2965C183.958 53.4505 184.541 52.9885 184.772 52.2845C185.003 51.5805 184.772 50.8875 184.321 50.7335C183.87 50.5795 183.287 51.0415 183.056 51.7455Z" fill="#263238"/>
<path d="M179.668 63.3063C177.944 66.0811 175.294 68.1576 172.188 69.1693C171.524 69.3872 170.843 69.5527 170.153 69.6642C167.5 70.1337 164.766 69.7237 162.367 68.4966C159.969 67.2695 158.037 65.2925 156.865 62.8663C153.719 56.6074 155.622 51.1735 158.108 41.7466C158.653 39.5348 159.754 37.499 161.308 35.833C162.861 34.167 164.815 32.926 166.984 32.2282C169.152 31.5304 171.463 31.3989 173.697 31.8462C175.93 32.2935 178.012 33.3047 179.745 34.7837C187.621 41.4497 184.387 55.6285 179.668 63.3063Z" fill="#E4897B"/>
<path opacity="0.2" d="M172.188 69.1692C171.524 69.3872 170.843 69.5527 170.153 69.6642C168.334 69.9822 166.467 69.8905 164.687 69.3957C162.908 68.901 161.262 68.0157 159.868 66.8043C160.643 65.8275 161.542 64.955 162.541 64.2083C166.166 64.9006 169.516 66.623 172.188 69.1692Z" fill="black"/>
<path d="M142.873 72.7442C144.468 79.0251 158.669 79.8721 158.669 79.8721C158.669 79.8721 165.896 82.237 165.874 79.4761C162.673 76.4951 162.035 73.6682 162.739 71.0392C163.227 69.4323 164.027 67.9372 165.093 66.6393C165.663 65.9062 166.273 65.2048 166.919 64.5383L160.737 47.6096C158.438 54.5615 149.638 71.0392 142.873 72.7442Z" fill="#E4897B"/>
<path d="M178.414 29.9438C178.414 29.9438 181.351 29.2398 184.244 34.5418C186.686 39.0077 182.275 40.5147 183.012 45.4756C183.749 50.4365 179.525 53.6815 179.525 53.6815C179.525 53.6815 176.06 57.3994 172.617 55.9694C172.617 55.9694 168.602 58.5214 167.887 62.2833C167.172 66.0453 159.868 60.2044 154.038 61.9094C154.038 61.9094 149.638 58.6094 148.912 49.4795C148.7 45.4901 149.244 41.4964 150.518 37.7097C150.518 37.7097 151.618 32.1108 158.086 28.3378C164.554 24.5649 176.632 25.5439 178.414 29.9438Z" fill="#263238"/>
<path d="M180.053 55.3094C180.053 55.3094 176.643 63.9553 173.299 65.5943C173.457 66.8657 173.36 68.1559 173.013 69.3892C173.013 69.3892 183.518 67.7833 184.508 57.2894L180.053 55.3094Z" fill="#04BFAD"/>
<path opacity="0.5" d="M180.053 55.3094C180.053 55.3094 176.643 63.9553 173.299 65.5943C173.457 66.8657 173.36 68.1559 173.013 69.3892C173.013 69.3892 183.518 67.7833 184.508 57.2894L180.053 55.3094Z" fill="white"/>
<path d="M173.651 66.4193C173.6 66.4184 173.551 66.4035 173.508 66.3763C173.466 66.3492 173.431 66.3107 173.409 66.2653C173.277 66.0013 170.109 59.7754 170.769 55.2655C170.834 54.3736 171.119 53.5117 171.599 52.7571C172.079 52.0026 172.739 51.3791 173.519 50.9425C174.144 50.6442 174.832 50.5023 175.524 50.5291C176.215 50.556 176.89 50.7507 177.49 51.0965C179.69 52.3835 180.79 56.4754 180.889 56.6514C180.908 56.7229 180.898 56.799 180.861 56.8629C180.824 56.9269 180.763 56.9735 180.691 56.9924C180.62 57.0114 180.543 57.0012 180.48 56.964C180.416 56.9269 180.369 56.8659 180.35 56.7944C180.35 56.7944 179.25 52.7465 177.215 51.5695C176.693 51.2713 176.106 51.1027 175.505 51.0778C174.904 51.0529 174.306 51.1725 173.761 51.4265C173.062 51.8266 172.473 52.3937 172.047 53.0771C171.621 53.7604 171.371 54.5388 171.319 55.3424C170.681 59.6324 173.871 65.9023 173.904 65.9573C173.936 66.0233 173.94 66.0988 173.918 66.1684C173.895 66.2379 173.847 66.2962 173.783 66.3313C173.748 66.372 173.702 66.4025 173.651 66.4193Z" fill="white"/>
<path d="M171.506 53.3845C171.402 54.3124 171.503 55.2519 171.804 56.1361C172.104 57.0202 172.596 57.8272 173.244 58.4994C174.872 59.9074 176.973 57.6634 177.644 54.7814C178.194 52.2405 178.04 48.3465 175.873 48.1815C173.706 48.0165 171.638 50.6785 171.506 53.3845Z" fill="#E4897B"/>
<path d="M154.665 279.057L164.29 277.737L165.621 254.868L156.018 256.199L154.665 279.057Z" fill="#EBB376"/>
<path opacity="0.2" d="M156.018 256.199L165.621 254.879L164.862 267.947L155.27 268.794L156.018 256.199Z" fill="black"/>
<path d="M187.522 170.808C184.761 201.145 171.132 264.999 171.132 264.999L153.422 263.646C153.422 263.646 152.696 204.39 160.11 174.075C147.768 172.656 105.803 179.894 97.597 165.671C97.5453 165.593 97.4975 165.512 97.454 165.429C93.054 157.289 98.785 126.687 98.785 126.687L152.685 129.91L155.039 144.617C162.739 147.367 170.274 148.797 176.192 151.305C183.738 154.506 188.556 159.39 187.522 170.808Z" fill="#04BFAD"/>
<path d="M165.038 276.571L154.17 275.9C153.989 275.882 153.809 275.934 153.667 276.048C153.525 276.161 153.433 276.325 153.411 276.505L152.311 285.085C152.286 285.534 152.438 285.975 152.734 286.314C153.03 286.653 153.446 286.863 153.895 286.9C157.69 287.076 159.516 286.966 164.29 287.23C167.227 287.406 173.013 288.022 177.061 287.637C181.109 287.252 180.625 283.237 178.876 283.061C174.718 282.588 169.229 279.541 166.633 277.22C166.184 276.839 165.625 276.611 165.038 276.571Z" fill="#263238"/>
<path d="M165.247 277.759H165.445C165.445 277.759 165.665 277.825 165.698 277.858C165.731 277.891 165.698 277.858 165.698 277.924C165.726 277.935 165.758 277.935 165.786 277.924C166.608 278.185 167.457 278.355 168.316 278.43C168.952 278.54 169.606 278.41 170.153 278.067C170.323 277.914 170.446 277.717 170.509 277.497C170.571 277.277 170.57 277.043 170.505 276.824C170.488 276.679 170.435 276.54 170.35 276.421C170.266 276.302 170.152 276.206 170.021 276.142C169.096 275.992 168.147 276.166 167.337 276.637C167.905 276.04 168.244 275.26 168.294 274.437C168.253 274.243 168.15 274.066 168.002 273.934C167.854 273.801 167.667 273.719 167.469 273.7C167.278 273.666 167.082 273.671 166.893 273.715C166.704 273.758 166.526 273.839 166.369 273.953C165.357 274.833 165.192 277.572 165.192 277.737L165.247 277.759ZM166.292 277.198L166.094 277.308C166.094 276.395 166.303 274.855 166.908 274.338C166.974 274.277 167.052 274.23 167.137 274.2C167.223 274.17 167.313 274.157 167.403 274.162H167.513C167.832 274.162 167.909 274.382 167.92 274.514C167.712 275.573 167.135 276.524 166.292 277.198ZM166.424 277.682C167.601 277.033 169.262 276.329 169.878 276.582C169.943 276.61 169.999 276.656 170.04 276.715C170.081 276.773 170.105 276.841 170.109 276.912C170.147 277.051 170.148 277.197 170.111 277.336C170.075 277.475 170.002 277.602 169.9 277.704C169.438 278.155 168.14 278.133 166.424 277.682Z" fill="#04BFAD"/>
<path d="M98.7849 126.709C98.7849 126.709 111.303 43.2646 177.413 72.2602L180.053 93.9079L175.466 99.2428C175.466 99.2428 158.185 111.464 152.707 129.932L98.7849 126.709Z" fill="#04BFAD"/>
<path opacity="0.2" d="M180.053 93.9079L175.466 99.2428C173.003 101.07 170.676 103.074 168.503 105.238C163.003 110.573 155.886 119.196 152.707 129.932L98.8069 126.709C98.8069 126.709 111.325 43.2646 177.435 72.2602L179.635 90.5859L180.053 93.9079Z" fill="white"/>
<path opacity="0.2" d="M180.053 93.9079L175.466 99.2428C173.003 101.07 170.676 103.074 168.503 105.238C167.777 98.3359 168.47 91.3585 170.538 84.734L179.657 90.5859L180.053 93.9079Z" fill="black"/>
<path d="M212.338 119.823L221.886 124.333C222.689 123.129 223.595 121.995 224.592 120.945C227.971 120.087 231.421 119.534 234.899 119.296C235.603 119.516 237.099 128.007 235.999 129.129C234.899 130.251 225.835 131.329 225.835 131.329L223.459 130.526L210.699 126.984L212.338 119.823Z" fill="#E4897B"/>
<path d="M177.413 72.2602C183.87 74.7242 189.238 102.257 191.119 104.732C193 107.207 217.838 121.308 217.838 121.308L215.638 129.778C215.638 129.778 187.643 119.988 183.87 116.799C180.097 113.609 171.11 93.4239 171.11 93.4239C170.183 88.8394 170.183 84.1156 171.11 79.5311C172.738 72.5462 177.413 72.2602 177.413 72.2602Z" fill="#04BFAD"/>
<path opacity="0.2" d="M177.413 72.2602C183.87 74.7242 189.238 102.257 191.119 104.732C193 107.207 217.838 121.308 217.838 121.308L215.638 129.778C215.638 129.778 187.643 119.988 183.87 116.799C180.097 113.609 171.11 93.4239 171.11 93.4239C170.183 88.8394 170.183 84.1156 171.11 79.5311C172.738 72.5462 177.413 72.2602 177.413 72.2602Z" fill="white"/>
<path d="M150.078 36.2797L190.107 41.1416L189.601 45.0466L149.319 39.9647L150.078 36.2797Z" fill="#04BFAD"/>
<path d="M220.61 123.288V132.143L223.536 131.373L226.484 132.143C227.98 132.528 235.834 130.603 236.384 130.13C236.934 129.657 236.164 118.031 235.834 118.031C235.504 118.031 224.735 119.955 224.196 119.955C223.657 119.955 222.128 123.255 222.128 123.255L220.61 123.288Z" fill="white"/>
<path opacity="0.2" d="M187.522 170.808C184.761 201.145 171.132 264.999 171.132 264.999L153.422 263.646C153.422 263.646 152.696 204.39 160.11 174.075C147.768 172.656 105.803 179.894 97.5969 165.671C103.097 167.948 112.711 169.345 127.44 163.207L176.214 151.305C183.738 154.506 188.556 159.39 187.522 170.808Z" fill="black"/>
<path d="M180.394 276.307L190.096 276.461L194.903 254.066L185.201 253.923L180.394 276.307Z" fill="#EBB376"/>
<path d="M191.438 276.813C191.438 276.813 191.438 276.868 191.438 276.89H191.515C192.289 277.266 193.1 277.561 193.935 277.77C194.55 277.976 195.22 277.949 195.816 277.693C196.008 277.568 196.162 277.391 196.259 277.183C196.356 276.975 196.393 276.744 196.366 276.516C196.372 276.372 196.34 276.228 196.275 276.099C196.21 275.97 196.112 275.86 195.992 275.779C195.107 275.476 194.142 275.503 193.275 275.856C193.942 275.351 194.41 274.626 194.595 273.81C194.6 273.619 194.54 273.431 194.424 273.279C194.308 273.127 194.143 273.019 193.957 272.974C193.8 272.914 193.631 272.89 193.463 272.905C193.295 272.921 193.133 272.974 192.989 273.062C191.889 273.777 191.548 276.505 191.526 276.659H191.361C191.355 276.69 191.36 276.721 191.374 276.749C191.388 276.777 191.41 276.799 191.438 276.813ZM192.12 276.241L191.911 276.318C192.087 275.416 192.494 273.931 193.176 273.513C193.249 273.459 193.334 273.422 193.423 273.405C193.513 273.387 193.605 273.391 193.693 273.414H193.792C194.1 273.513 194.155 273.689 194.144 273.821C194.133 274.514 193.077 275.658 192.153 276.241H192.12ZM192.186 276.736C193.44 276.274 195.189 275.823 195.761 276.208C195.82 276.247 195.868 276.302 195.899 276.366C195.93 276.429 195.943 276.5 195.937 276.571C195.954 276.714 195.932 276.859 195.874 276.99C195.816 277.122 195.724 277.235 195.607 277.319C195.101 277.66 193.847 277.44 192.219 276.736H192.186Z" fill="#04BFAD"/>
<path opacity="0.2" d="M185.201 253.923L194.892 254.077L192.153 266.88L182.539 266.253L185.201 253.923Z" fill="black"/>
<path d="M198.808 264.944L181.538 260.907C181.538 260.907 188.424 202.971 197.598 182.49C196.806 182.281 195.772 182.017 194.485 181.709C192.164 181.159 189.084 180.477 185.476 179.685C160.341 174.24 109.477 164.285 109.477 164.285L131.158 141.603C131.158 141.603 223.184 150.304 226.451 174.24C227.969 185.702 198.808 264.944 198.808 264.944Z" fill="#04BFAD"/>
<path d="M190.998 275.427L180.361 273.106C180.184 273.059 179.996 273.083 179.838 273.174C179.679 273.265 179.563 273.414 179.514 273.59L177.138 281.906C177.042 282.346 177.124 282.806 177.365 283.187C177.605 283.568 177.986 283.839 178.425 283.941C182.154 284.689 183.925 284.865 188.655 285.855C191.537 286.471 197.158 287.967 201.217 288.198C205.276 288.429 205.397 284.403 203.703 283.952C199.677 282.852 194.705 279.002 192.494 276.318C192.105 275.866 191.58 275.554 190.998 275.427Z" fill="#263238"/>
<path d="M91.228 170.544H164.84C166.299 170.544 167.698 171.123 168.729 172.155C169.761 173.186 170.34 174.585 170.34 176.044V183.403H85.728V176.044C85.728 174.585 86.3075 173.186 87.3389 172.155C88.3704 171.123 89.7693 170.544 91.228 170.544Z" fill="#04BFAD"/>
<path opacity="0.3" d="M91.228 170.544H164.84C166.299 170.544 167.698 171.123 168.729 172.155C169.761 173.186 170.34 174.585 170.34 176.044V183.403H85.728V176.044C85.728 174.585 86.3075 173.186 87.3389 172.155C88.3704 171.123 89.7693 170.544 91.228 170.544Z" fill="black"/>
<path d="M77.0379 121.286H107.288C116.145 121.286 123.326 114.106 123.326 105.249V93.4129C123.326 84.5555 116.145 77.3751 107.288 77.3751H77.0379C68.1804 77.3751 60.9999 84.5555 60.9999 93.4129V105.249C60.9999 114.106 68.1804 121.286 77.0379 121.286Z" fill="#04BFAD"/>
<g opacity="0.3">
<path d="M77.0379 121.286H107.288C116.145 121.286 123.326 114.106 123.326 105.249V93.4129C123.326 84.5555 116.145 77.3751 107.288 77.3751H77.0379C68.1804 77.3751 60.9999 84.5555 60.9999 93.4129V105.249C60.9999 114.106 68.1804 121.286 77.0379 121.286Z" fill="black"/>
</g>
<path d="M88.951 263.206L120.653 260.093V208.944H133.215V260.071L165.038 263.206C166.565 263.357 167.981 264.069 169.012 265.205C170.043 266.342 170.614 267.821 170.615 269.355V274.107H83.385V269.355C83.3856 267.823 83.9553 266.345 84.9838 265.209C86.0123 264.073 87.4261 263.359 88.951 263.206Z" fill="#263238"/>
<path opacity="0.2" d="M88.951 263.206L120.653 260.093V208.944H133.215V260.071L165.038 263.206C166.565 263.357 167.981 264.069 169.012 265.205C170.043 266.342 170.614 267.821 170.615 269.355V274.107H83.385V269.355C83.3856 267.823 83.9553 266.345 84.9838 265.209C86.0123 264.073 87.4261 263.359 88.951 263.206Z" fill="white"/>
<path d="M167.249 288.22C171.787 288.22 175.466 284.541 175.466 280.003C175.466 275.465 171.787 271.786 167.249 271.786C162.711 271.786 159.032 275.465 159.032 280.003C159.032 284.541 162.711 288.22 167.249 288.22Z" fill="#263238"/>
<path d="M86.74 288.22C91.2781 288.22 94.957 284.541 94.957 280.003C94.957 275.465 91.2781 271.786 86.74 271.786C82.2018 271.786 78.5229 275.465 78.5229 280.003C78.5229 284.541 82.2018 288.22 86.74 288.22Z" fill="#263238"/>
<path d="M130.828 218.514H123.029C121.824 218.514 120.669 218.035 119.817 217.183C118.965 216.331 118.486 215.176 118.486 213.971V178.849H135.371V213.971C135.371 215.176 134.892 216.331 134.04 217.183C133.189 218.035 132.033 218.514 130.828 218.514Z" fill="#263238"/>
<path opacity="0.3" d="M130.828 218.514H123.029C121.824 218.514 120.669 218.035 119.817 217.183C118.965 216.331 118.486 215.176 118.486 213.971V178.849H135.371V213.971C135.371 215.176 134.892 216.331 134.04 217.183C133.189 218.035 132.033 218.514 130.828 218.514Z" fill="white"/>
<path d="M96.904 109.209C96.904 109.209 94.506 168.608 111.039 178.838H92.163C92.163 178.838 77.533 158.598 81.669 109.209H96.904Z" fill="#263238"/>
<path opacity="0.3" d="M96.904 109.209C96.904 109.209 94.506 168.608 111.039 178.838H92.163C92.163 178.838 77.533 158.598 81.669 109.209H96.904Z" fill="white"/>
<path d="M171.66 176.968H84.419C83.1979 176.968 82.208 177.958 82.208 179.179V181.181C82.208 182.402 83.1979 183.392 84.419 183.392H171.66C172.881 183.392 173.871 182.402 173.871 181.181V179.179C173.871 177.958 172.881 176.968 171.66 176.968Z" fill="#263238"/>
<path opacity="0.6" d="M171.66 176.968H84.419C83.1979 176.968 82.208 177.958 82.208 179.179V181.181C82.208 182.402 83.1979 183.392 84.419 183.392H171.66C172.881 183.392 173.871 182.402 173.871 181.181V179.179C173.871 177.958 172.881 176.968 171.66 176.968Z" fill="white"/>
<path d="M97.146 90.7179H80.063C75.0571 90.7179 70.999 94.7759 70.999 99.7818V106.459C70.999 111.465 75.0571 115.523 80.063 115.523H97.146C102.152 115.523 106.21 111.465 106.21 106.459V99.7818C106.21 94.7759 102.152 90.7179 97.146 90.7179Z" fill="#263238"/>
<path opacity="0.2" d="M97.146 90.7179H80.063C75.0571 90.7179 70.999 94.7759 70.999 99.7818V106.459C70.999 111.465 75.0571 115.523 80.063 115.523H97.146C102.152 115.523 106.21 111.465 106.21 106.459V99.7818C106.21 94.7759 102.152 90.7179 97.146 90.7179Z" fill="white"/>
</g>
<defs>
<clipPath id="clip0_302_2275">
<rect width="549.317" height="300" fill="white"/>
</clipPath>
</defs>
</svg>
