<svg width="500" height="300" viewBox="0 0 500 300" fill="none" xmlns="http://www.w3.org/2000/svg">
<g clip-path="url(#clip0_306_3184)">
<path d="M73.6771 294.53C73.6771 294.53 48.9071 241.77 54.2871 240.25C59.6671 238.73 70.9471 247.13 70.9471 247.13C70.9471 247.13 37.8471 158.43 46.4171 151.55C54.9871 144.67 70.9871 179.88 70.9871 179.88C70.9871 179.88 53.8971 125.55 55.9071 104.88C57.9171 84.2104 79.6271 104.12 79.6271 104.12C79.6271 104.12 62.2371 29.9505 78.3871 26.1206C94.5371 22.2906 93.9971 110.99 93.9971 110.99C93.9971 110.99 99.2971 47.5205 105.767 65.1105C112.237 82.7004 98.6371 141.57 98.6371 141.57C98.6371 141.57 107.507 121.69 112.437 140.04C117.367 158.39 102.637 232.56 102.637 232.56C102.637 232.56 115.157 220.33 116.327 235.62C117.497 250.91 90.4071 298.32 90.4071 298.32L75.0771 299.88L73.6771 294.53Z" fill="#035AA6"/>
<path opacity="0.6" d="M73.6771 294.53C73.6771 294.53 48.9071 241.77 54.2871 240.25C59.6671 238.73 70.9471 247.13 70.9471 247.13C70.9471 247.13 37.8471 158.43 46.4171 151.55C54.9871 144.67 70.9871 179.88 70.9871 179.88C70.9871 179.88 53.8971 125.55 55.9071 104.88C57.9171 84.2104 79.6271 104.12 79.6271 104.12C79.6271 104.12 62.2371 29.9505 78.3871 26.1206C94.5371 22.2906 93.9971 110.99 93.9971 110.99C93.9971 110.99 99.2971 47.5205 105.767 65.1105C112.237 82.7004 98.6371 141.57 98.6371 141.57C98.6371 141.57 107.507 121.69 112.437 140.04C117.367 158.39 102.637 232.56 102.637 232.56C102.637 232.56 115.157 220.33 116.327 235.62C117.497 250.91 90.4071 298.32 90.4071 298.32L75.0771 299.88L73.6771 294.53Z" fill="white"/>
<path d="M78.9572 296.88C78.9572 296.88 58.3172 260.18 62.1372 253.29C65.9572 246.4 77.4272 262.47 77.4272 262.47C77.4272 262.47 51.4272 197.47 55.2572 191.36C59.0872 185.25 71.3172 212.01 71.3172 212.01C71.3172 212.01 66.7472 122.5 74.3672 125.55C81.9872 128.6 82.7472 171.43 82.7472 171.43C82.7472 171.43 78.1672 69.7405 85.0472 72.8005C91.9272 75.8605 91.1672 189.02 91.1672 189.02C91.1672 189.02 104.927 145.43 107.167 165.31C109.407 185.19 89.5872 238.72 89.5872 238.72C89.5872 238.72 108.747 196.66 111.077 218.88C113.407 241.1 95.7472 282.3 95.7472 282.3C95.7472 282.3 102.627 265.48 102.627 274.65C102.627 283.82 97.2772 295.3 97.2772 295.3" stroke="#263238" stroke-linecap="round" stroke-linejoin="round"/>
<path d="M48.17 251L35 294.4H70.67L84.24 251.23L48.17 251Z" fill="#263238" stroke="#263238" stroke-linecap="round" stroke-linejoin="round"/>
<path d="M131.34 294.33H57.0099L48.1699 251H122.5L131.34 294.33Z" fill="white" stroke="#263238" stroke-linecap="round" stroke-linejoin="round"/>
<path d="M123.68 287H61.68L57.05 264.33H119.05L123.68 287Z" stroke="#263238" stroke-linecap="round" stroke-linejoin="round"/>
<path d="M62.3799 264.42L66.9699 286.9" stroke="#263238" stroke-linecap="round" stroke-linejoin="round"/>
<path d="M68.0701 264.42L72.6601 286.9" stroke="#263238" stroke-linecap="round" stroke-linejoin="round"/>
<path d="M73.76 264.42L78.35 286.9" stroke="#263238" stroke-linecap="round" stroke-linejoin="round"/>
<path d="M79.4399 264.42L84.0299 286.9" stroke="#263238" stroke-linecap="round" stroke-linejoin="round"/>
<path d="M85.1299 264.42L89.7199 286.9" stroke="#263238" stroke-linecap="round" stroke-linejoin="round"/>
<path d="M90.8201 264.42L95.4101 286.9" stroke="#263238" stroke-linecap="round" stroke-linejoin="round"/>
<path d="M96.5 264.42L101.09 286.9" stroke="#263238" stroke-linecap="round" stroke-linejoin="round"/>
<path d="M102.19 264.42L106.78 286.9" stroke="#263238" stroke-linecap="round" stroke-linejoin="round"/>
<path d="M107.87 264.42L112.46 286.9" stroke="#263238" stroke-linecap="round" stroke-linejoin="round"/>
<path d="M113.56 264.42L118.15 286.9" stroke="#263238" stroke-linecap="round" stroke-linejoin="round"/>
<path d="M58.1101 268.81H119.76" stroke="#263238" stroke-linecap="round" stroke-linejoin="round"/>
<path d="M59.03 273.33H120.68" stroke="#263238" stroke-linecap="round" stroke-linejoin="round"/>
<path d="M59.96 277.86H121.6" stroke="#263238" stroke-linecap="round" stroke-linejoin="round"/>
<path d="M60.8799 282.38H122.53" stroke="#263238" stroke-linecap="round" stroke-linejoin="round"/>
<path d="M84.0601 260.41H56.5301L56.0901 258.21H83.6101L84.0601 260.41Z" fill="#263238"/>
<path d="M461.341 184.63H371.681C367.461 184.73 363.417 186.335 360.278 189.155C357.138 191.976 355.11 195.826 354.561 200.01L343.561 297.24H448.561L461.341 184.63Z" fill="white" stroke="#263238" stroke-linecap="round" stroke-linejoin="round"/>
<path d="M461.81 184.63C458.305 184.713 454.945 186.046 452.337 188.39C449.729 190.734 448.045 193.933 447.59 197.41L436.28 297.24H461.82L473.14 197.41C473.373 195.801 473.253 194.16 472.787 192.602C472.321 191.044 471.52 189.607 470.442 188.39C469.363 187.174 468.032 186.207 466.541 185.557C465.05 184.908 463.436 184.591 461.81 184.63Z" fill="#263238" stroke="#263238" stroke-linecap="round" stroke-linejoin="round"/>
<path d="M342.63 155.42C336.329 159.919 329.519 163.658 322.34 166.56C309.61 171.86 304.49 173.46 304.49 173.46L308.02 295.26H400.44C400.44 295.26 388.59 218.89 388.59 193.26C388.59 167.63 389.65 162.63 389.65 162.63L359.25 154.85L342.63 155.42Z" fill="#035AA6" stroke="#263238" stroke-linecap="round" stroke-linejoin="round"/>
<path d="M332.55 160.55C329.669 181.237 327.959 202.07 327.43 222.95C326.9 254.24 332.91 295.95 332.91 295.95H265.2C273.62 280.022 279.642 262.938 283.07 245.25C288.07 219.92 292.07 176.98 293.13 176.45C294.19 175.92 330.08 162.63 332.55 160.55Z" fill="#263238" stroke="#263238" stroke-linecap="round" stroke-linejoin="round"/>
<path d="M301.801 295.96C301.801 295.96 294.901 249.29 295.251 238.33C295.601 227.37 297.341 190.25 297.341 190.25" stroke="#616161" stroke-linecap="round" stroke-linejoin="round"/>
<path d="M370.56 157.37C370.56 157.37 361.9 197.14 361.19 229.85C360.48 262.56 358.19 296.14 358.19 296.14H412.94C412.94 296.14 413.65 266.26 412.94 256.01C412.23 245.76 412.23 247.88 412.23 247.88L433.45 253.36C433.45 253.36 419.83 187.77 417.36 180.53C414.89 173.29 416.12 170.98 414.53 169.74C412.94 168.5 370.56 157.37 370.56 157.37Z" fill="#263238" stroke="#263238" stroke-linecap="round" stroke-linejoin="round"/>
<path d="M271.67 268.92C273.098 271.108 274.776 273.122 276.67 274.92C279.1 277 284.31 275.92 287.08 278.76C289.85 281.6 286.82 290.27 283.32 293.3C277.32 298.47 280.5 282.78 280.5 282.78C278.385 284.23 276.048 285.328 273.58 286.03C270.18 286.81 261.43 284.15 258.5 284.03C255.57 283.91 251.5 283.35 249.94 280.09C248.38 276.83 258.06 272.9 262.36 271.34C265.397 270.297 268.51 269.488 271.67 268.92Z" fill="white" stroke="#263238" stroke-linecap="round" stroke-linejoin="round"/>
<path d="M253.15 273.52C252.226 273.273 251.249 273.303 250.341 273.605C249.433 273.907 248.633 274.469 248.04 275.22C246.04 277.85 242.04 289.73 243.21 292.02C244.38 294.31 247.41 291.1 248.85 287.33C249.465 285.513 250.283 283.772 251.29 282.14C251.29 282.14 252.87 282.91 253.98 280.85C255.09 278.79 256.21 275.7 253.15 273.52Z" fill="white" stroke="#263238" stroke-linecap="round" stroke-linejoin="round"/>
<path d="M258.81 271.45C257.842 270.892 256.71 270.687 255.607 270.87C254.504 271.052 253.498 271.61 252.76 272.45C249.95 275.45 251.88 288.06 253.37 291.92C254.86 295.78 257.68 295.3 258.1 292.92C258.52 290.54 259 278.67 259.15 275.92C259.275 274.421 259.16 272.913 258.81 271.45Z" fill="white" stroke="#263238" stroke-linecap="round" stroke-linejoin="round"/>
<path d="M264.81 270.09C263.854 269.488 262.71 269.257 261.596 269.442C260.481 269.626 259.472 270.212 258.76 271.09C255.97 274.26 258.03 287.6 259.56 291.7C261.09 295.8 263.91 295.32 264.31 292.77C264.71 290.22 265.07 277.69 265.19 274.77C265.293 273.2 265.164 271.623 264.81 270.09Z" fill="white" stroke="#263238" stroke-linecap="round" stroke-linejoin="round"/>
<path d="M273.59 271.71C273.59 271.71 271.26 266.5 267.46 267.36C263.66 268.22 262.46 273.36 263.16 281.16C263.86 288.96 265.32 295.16 267.44 295.38C269.56 295.6 271.87 290.89 272.29 284.8C272.71 278.71 273.34 275.07 273.34 275.07" fill="white"/>
<path d="M273.59 271.71C273.59 271.71 271.26 266.5 267.46 267.36C263.66 268.22 262.46 273.36 263.16 281.16C263.86 288.96 265.32 295.16 267.44 295.38C269.56 295.6 271.87 290.89 272.29 284.8C272.71 278.71 273.34 275.07 273.34 275.07" stroke="#263238" stroke-linecap="round" stroke-linejoin="round"/>
<path d="M322.45 217.2H298.88V253.38H322.45V217.2Z" fill="#035AA6" stroke="#263238" stroke-linecap="round" stroke-linejoin="round"/>
<path d="M312.31 206.66H307.97V223.4H312.31V206.66Z" fill="white" stroke="#263238" stroke-linecap="round" stroke-linejoin="round"/>
<path d="M314.791 227.33H304.661V240.56H314.791V227.33Z" fill="white" stroke="#263238" stroke-linecap="round" stroke-linejoin="round"/>
<path d="M303.01 244.49H316.86" stroke="#263238" stroke-linecap="round" stroke-linejoin="round"/>
<path d="M300.94 247.38H318.72" stroke="#263238" stroke-linecap="round" stroke-linejoin="round"/>
<path d="M340.161 150.3C340.161 150.3 332.551 155.42 331.161 159.49C329.771 163.56 323.911 180.88 321.611 187.42C319.311 193.96 306.231 199.62 308.001 200.86C309.771 202.1 326.921 203.68 326.921 203.68C326.921 203.68 330.811 218.89 331.691 222.78C332.571 226.67 337.881 238.51 337.881 238.51C337.881 238.51 353.611 219.59 356.091 214.51C357.794 211.075 359.743 207.766 361.921 204.61C361.921 204.61 368.641 206.2 372.921 206.91C377.201 207.62 388.831 208.67 388.301 206.73C387.771 204.79 381.941 196.3 379.641 187.99C377.341 179.68 378.751 161.47 375.931 154.4C373.111 147.33 366.931 146.27 364.791 145.74C362.651 145.21 343.341 147.29 340.161 150.3Z" fill="#035AA6" stroke="#263238" stroke-linecap="round" stroke-linejoin="round"/>
<path d="M337.68 144.82C337.68 144.82 339.98 157.72 339.68 168.15C339.38 178.58 335.61 201.92 335.79 213.94C335.97 221.924 336.617 229.892 337.73 237.8C337.73 237.8 355.06 213.94 361.42 194.49C367.78 175.04 369.55 158.43 369.55 157.19C369.55 155.95 369.9 127.14 369.9 127.14C369.9 127.14 351.47 146.41 337.68 144.82Z" fill="white" stroke="#263238" stroke-linecap="round" stroke-linejoin="round"/>
<path d="M369.711 139.37C369.781 132.89 369.851 127.14 369.851 127.14C369.851 127.14 351.471 146.41 337.681 144.82C337.681 144.82 338.331 148.45 338.881 153.42C340.684 154.656 342.687 155.572 344.801 156.13C351.181 157.41 358.331 153.84 363.181 147.71C364.971 145.45 367.341 142.37 369.711 139.37Z" fill="#263238" stroke="#263238" stroke-linecap="round" stroke-linejoin="round"/>
<path d="M382.32 80.82C392.035 80.82 399.91 73.0253 399.91 63.41C399.91 53.7947 392.035 46 382.32 46C372.606 46 364.73 53.7947 364.73 63.41C364.73 73.0253 372.606 80.82 382.32 80.82Z" fill="#263238" stroke="#263238" stroke-linecap="round" stroke-linejoin="round"/>
<path d="M311.09 93.83C311.09 93.83 301.65 91.27 300.09 86.17C298.53 81.07 304.18 63.17 322.56 54C340.94 44.83 357.8 49.91 365.2 51.95C372.6 53.99 377.97 57.83 382.82 71.36C387.67 84.89 387.92 95.36 386.39 100.46C385.481 103.51 384.372 106.496 383.07 109.4C383.07 109.4 373.63 110.4 371.07 106.59C368.51 102.78 369.54 83.59 358.56 79.02C347.58 74.45 326.65 77.02 321.56 81.57C316.47 86.12 311.09 93.83 311.09 93.83Z" fill="#263238" stroke="#263238" stroke-linecap="round" stroke-linejoin="round"/>
<path d="M309.561 90.51C309.561 90.51 311.861 105.06 311.861 112.97C311.861 120.88 318.241 131.87 321.561 134.97C324.881 138.07 335.861 148.5 342.241 149.78C348.621 151.06 355.771 147.48 360.621 141.35C365.471 135.22 374.921 122.97 374.921 122.97C377.028 123.205 379.15 122.695 380.922 121.53C382.693 120.365 384.001 118.618 384.621 116.59C387.181 109.18 385.901 100.76 381.561 99.74C377.221 98.72 374.161 103.82 374.161 103.82C374.161 103.82 370.581 90.04 365.991 83.14L359.351 73.14L367.821 62.55C367.913 62.435 367.981 62.3021 368.02 62.1598C368.059 62.0174 368.069 61.8686 368.048 61.7224C368.028 61.5762 367.977 61.4358 367.9 61.3098C367.823 61.1838 367.721 61.075 367.601 60.99C367.373 60.8268 367.091 60.7576 366.814 60.7967C366.536 60.8358 366.284 60.9802 366.111 61.2L357.821 71.87C357.821 71.87 341.481 69.06 327.181 76.21C312.881 83.36 309.561 90.51 309.561 90.51Z" fill="white" stroke="#263238" stroke-linecap="round" stroke-linejoin="round"/>
<path d="M362.02 104.88L359.72 107.95" stroke="#263238" stroke-linecap="round" stroke-linejoin="round"/>
<path d="M330.5 122.42C330.5 122.42 331.01 123.95 334.33 124.72C335.88 125.08 337.5 124.983 338.995 124.44C340.489 123.896 341.794 122.931 342.75 121.66" stroke="#263238" stroke-linecap="round" stroke-linejoin="round"/>
<path d="M334.34 130.63C337.488 131.34 340.767 131.219 343.854 130.28C346.942 129.34 349.732 127.614 351.95 125.27C351.95 125.27 349.66 134.97 345.06 136.76C340.46 138.55 340.21 133.69 340.21 133.69L334.34 130.63Z" stroke="#263238" stroke-linecap="round" stroke-linejoin="round"/>
<path d="M343.521 111.19C345.636 109.198 348.211 107.76 351.016 107.003C353.821 106.246 356.77 106.193 359.601 106.85" stroke="#263238" stroke-width="2" stroke-linecap="round" stroke-linejoin="round"/>
<path d="M326.921 110.68C326.921 110.68 321.311 105.06 315.431 108.12" stroke="#263238" stroke-width="2" stroke-linecap="round" stroke-linejoin="round"/>
<path d="M313.65 106.85L316.45 109.66" stroke="#263238" stroke-linecap="round" stroke-linejoin="round"/>
<path d="M341.73 97.4C341.73 97.4 349.34 88.63 360.34 96.89" stroke="#263238" stroke-linecap="round" stroke-linejoin="round"/>
<path d="M326.411 97.14C326.411 97.14 319.521 91.78 312.621 97.91" stroke="#263238" stroke-linecap="round" stroke-linejoin="round"/>
<path d="M349.53 109.82C349.54 110.069 349.475 110.316 349.342 110.527C349.21 110.738 349.017 110.905 348.788 111.005C348.56 111.105 348.307 111.134 348.061 111.088C347.816 111.041 347.591 110.922 347.414 110.746C347.238 110.569 347.119 110.344 347.073 110.099C347.027 109.854 347.055 109.6 347.155 109.372C347.255 109.143 347.422 108.95 347.633 108.818C347.845 108.686 348.091 108.62 348.34 108.63C348.652 108.642 348.948 108.772 349.168 108.992C349.389 109.213 349.518 109.508 349.53 109.82Z" fill="#263238"/>
<path d="M320.34 108.75C320.342 108.996 320.271 109.236 320.136 109.442C320.001 109.647 319.808 109.807 319.582 109.903C319.355 109.998 319.106 110.024 318.865 109.977C318.623 109.931 318.402 109.813 318.227 109.64C318.053 109.467 317.934 109.246 317.885 109.006C317.836 108.765 317.86 108.515 317.954 108.288C318.047 108.061 318.206 107.866 318.41 107.73C318.615 107.593 318.855 107.52 319.1 107.52C319.427 107.52 319.741 107.649 319.974 107.88C320.206 108.11 320.338 108.423 320.34 108.75Z" fill="#263238"/>
<path d="M380.671 83.85C380.671 83.85 381.551 95.34 379.431 104L382.791 105.06C382.791 105.06 385.441 91.8 384.201 84.38L380.671 83.85Z" fill="#035AA6" stroke="#263238" stroke-linecap="round" stroke-linejoin="round"/>
<path d="M357.831 50.24C361.527 52.0846 364.822 54.6437 367.523 57.7693C370.225 60.895 372.281 64.5252 373.571 68.45C377.631 81.53 377.101 85.6 379.571 87.01C382.041 88.42 386.821 89.31 386.991 86.13C387.161 82.95 386.061 68.76 378.991 59.96C373.691 53.26 362.251 50.42 357.831 50.24Z" fill="#035AA6" stroke="#263238" stroke-linecap="round" stroke-linejoin="round"/>
<path d="M382.07 101.47C376.98 99.91 371.39 103.47 369.57 109.38C367.89 114.85 370.03 120.43 374.37 122.49C371.184 130.587 366.445 137.982 360.42 144.26C359.248 144.116 358.063 144.415 357.1 145.1C355.28 146.33 354.48 148.34 355.33 149.6C356.18 150.86 358.33 150.88 360.16 149.66C361.99 148.44 362.64 146.66 362.06 145.44C368.221 139.01 373.053 131.429 376.28 123.13C381.14 124.13 386.28 120.65 387.99 115.02C389.81 109.1 387.16 103.03 382.07 101.47Z" fill="#035AA6" stroke="#263238" stroke-linecap="round" stroke-linejoin="round"/>
<path d="M386.391 113.03C385.531 116.81 382.121 119.27 378.771 118.51C375.421 117.75 373.401 114.06 374.261 110.28C375.121 106.5 378.531 104.04 381.881 104.79C385.231 105.54 387.251 109.24 386.391 113.03Z" fill="#035AA6" stroke="#263238" stroke-linecap="round" stroke-linejoin="round"/>
<path d="M385.411 175.4C385.411 175.4 380.461 163.03 379.411 160.73C378.361 158.43 387.011 144.82 388.411 142.87C389.811 140.92 392.471 136.87 392.471 135.98C392.471 135.09 382.401 125.19 380.271 123.6C378.141 122.01 374.621 125.6 374.621 125.6C374.621 125.6 365.431 137.8 365.431 139.21C365.431 140.62 369.841 145.04 369.841 145.04C369.841 145.04 362.951 154.94 363.841 158.83C364.731 162.72 368.261 166.08 368.261 166.08L373.211 185.17L385.411 175.4Z" fill="white" stroke="#263238" stroke-linecap="round" stroke-linejoin="round"/>
<path d="M369.851 144.99C369.851 144.99 375.851 140.22 375.331 138.81C375.125 138.391 374.793 138.047 374.383 137.825C373.973 137.603 373.504 137.514 373.041 137.57" stroke="#263238" stroke-linecap="round" stroke-linejoin="round"/>
<path d="M374.101 127.14C374.631 127.14 390.181 137.39 389.831 139.14C389.521 140.432 389.048 141.679 388.421 142.85" stroke="#263238" stroke-linecap="round" stroke-linejoin="round"/>
<path d="M375.871 125.55C375.871 125.55 390.541 134.74 390.871 136.33C390.936 136.852 390.874 137.383 390.69 137.876C390.505 138.369 390.203 138.809 389.811 139.16" stroke="#263238" stroke-linecap="round" stroke-linejoin="round"/>
<path d="M377.46 123.96C377.46 123.96 392.84 134.39 392.46 135.96C392.039 137.247 391.381 138.444 390.52 139.49" stroke="#263238" stroke-linecap="round" stroke-linejoin="round"/>
<path d="M387.53 173.99L363.84 187.63C363.84 187.63 394.6 260.81 400.26 270.71C405.92 280.61 421.12 282.91 429.08 280.26C437.04 277.61 440.92 261.7 438.27 254.98C435.62 248.26 416.52 218.89 407.34 204.21C398.16 189.53 387.53 173.99 387.53 173.99Z" fill="#263238" stroke="#263238" stroke-linecap="round" stroke-linejoin="round"/>
<path d="M375.01 212.63C375.01 212.63 401.01 262.63 407.67 272.63" stroke="#616161" stroke-linecap="round" stroke-linejoin="round"/>
<path d="M389.67 179.92L426.34 235.92" stroke="#616161" stroke-linecap="round" stroke-linejoin="round"/>
<path d="M147.52 294.83H312.92V288.16H147.52V294.83Z" fill="white" stroke="#263238" stroke-linecap="round" stroke-linejoin="round"/>
<path d="M122.12 294.83H266.28V288.16H122.12V294.83Z" fill="white" stroke="#263238" stroke-linecap="round" stroke-linejoin="round"/>
<path d="M119.33 276.29H257.25L242.38 171H104.46L119.33 276.29Z" fill="white" stroke="#263238" stroke-linecap="round" stroke-linejoin="round"/>
<path d="M113.62 276.29H251.54L236.67 171H98.75L113.62 276.29Z" fill="#263238" stroke="#263238" stroke-linecap="round" stroke-linejoin="round"/>
<path d="M155.88 227.35L142.04 294.83H177.63L191.47 227.35H155.88ZM180.02 247.35C179.962 247.633 179.808 247.888 179.584 248.07C179.36 248.252 179.079 248.351 178.79 248.35L158.63 248.15C158.441 248.148 158.255 248.103 158.086 248.019C157.917 247.935 157.769 247.814 157.653 247.665C157.537 247.517 157.456 247.344 157.415 247.159C157.375 246.975 157.377 246.784 157.42 246.6L159.24 239.03C159.298 238.747 159.452 238.492 159.676 238.31C159.901 238.128 160.181 238.029 160.47 238.03L180.64 238.22C180.828 238.224 181.013 238.27 181.18 238.354C181.348 238.439 181.495 238.56 181.61 238.708C181.725 238.857 181.806 239.029 181.845 239.213C181.885 239.397 181.883 239.587 181.84 239.77L180.02 247.35Z" fill="white" stroke="#263238" stroke-linecap="round" stroke-linejoin="round"/>
<path d="M18 299.67L483.5 299.67V294.83L18 294.83V299.67Z" fill="#263238" stroke="#263238" stroke-linecap="round" stroke-linejoin="round"/>
</g>
<defs>
<clipPath id="clip0_306_3184">
<rect width="500" height="300" fill="white"/>
</clipPath>
</defs>
</svg>
