<svg width="550" height="129" viewBox="0 0 550 129" fill="none" xmlns="http://www.w3.org/2000/svg">
<g clip-path="url(#clip0_356_517)">
<path d="M61.8368 70.3971C61.4262 70.674 60.9774 70.8889 60.5 71.0321C60.0226 71.1801 59.5356 71.2517 59.0343 71.2517C58.5378 71.2517 58.046 71.1801 57.5686 71.0321C57.0912 70.8889 56.6471 70.674 56.2318 70.3971C54.4462 69.1797 53.7778 67.0265 54.3889 64.4818C54.4462 64.2526 55.0096 62.1233 57.9935 58.9293C58.1272 58.786 58.2847 58.6762 58.4661 58.5998C58.6428 58.5187 58.8338 58.4805 59.0295 58.4805C59.2253 58.4805 59.4115 58.5187 59.5929 58.5998C59.7743 58.6762 59.9319 58.786 60.0655 58.9293C63.0304 62.1089 63.6129 64.224 63.6701 64.4818C64.2813 67.0217 63.6129 69.1797 61.8368 70.3971Z" fill="#035AA6"/>
<path d="M53.9877 53.921C53.8588 53.7873 53.7061 53.687 53.5294 53.6154C53.3575 53.5438 53.1761 53.5056 52.9899 53.5056C52.8037 53.5056 52.6223 53.5438 52.4504 53.6154C52.2738 53.687 52.121 53.7873 51.9873 53.921L47.0363 58.8719C46.4252 58.49 45.7664 58.2226 45.0646 58.0603C44.3627 57.9028 43.6514 57.8598 42.9352 57.9409C42.2191 58.0221 41.5363 58.2179 40.887 58.5282C40.2377 58.8433 39.6553 59.2539 39.1444 59.76L22.6444 76.26L20.1475 73.763C20.0138 73.6293 19.8562 73.5291 19.6844 73.4527C19.5077 73.381 19.3263 73.3476 19.1401 73.3476C18.9491 73.3476 18.7677 73.381 18.5958 73.4527C18.4192 73.5291 18.2664 73.6293 18.1327 73.763C17.999 73.8967 17.8988 74.0495 17.8271 74.2213C17.7555 74.3932 17.7173 74.5746 17.7173 74.7608C17.7173 74.9518 17.7555 75.1284 17.8271 75.3051C17.8988 75.477 17.999 75.6297 18.1327 75.7634L21.8089 79.4253L19.1449 82.0846L17.8128 80.7526C17.6791 80.6189 17.5264 80.5186 17.3545 80.447C17.1778 80.3754 17.0012 80.342 16.8102 80.342C16.624 80.342 16.4426 80.3754 16.2707 80.447C16.0988 80.5186 15.9461 80.6189 15.8124 80.7526C15.6739 80.8863 15.5689 81.039 15.4925 81.2157C15.4161 81.3876 15.3779 81.5738 15.3779 81.7647C15.3779 81.9509 15.4113 82.1371 15.483 82.3138C15.5546 82.4904 15.6548 82.648 15.7885 82.7817L25.1271 92.1202C25.2607 92.2539 25.4135 92.3541 25.5902 92.4257C25.762 92.4974 25.9435 92.5356 26.1297 92.5356C26.3159 92.5356 26.4973 92.4974 26.6692 92.4257C26.8458 92.3541 26.9986 92.2539 27.1275 92.1202C27.2612 91.9865 27.3662 91.8337 27.4378 91.6571C27.5094 91.4852 27.5429 91.3038 27.5429 91.1128C27.5429 90.9266 27.5094 90.7404 27.4378 90.5685C27.3662 90.3919 27.2612 90.2391 27.1275 90.1054L25.8098 88.7734L28.4691 86.1093L32.1453 89.7712C32.2742 89.924 32.427 90.0386 32.6084 90.1245C32.785 90.2105 32.9712 90.2582 33.1718 90.2678C33.3675 90.2725 33.5585 90.2439 33.7447 90.1723C33.9261 90.0959 34.0884 89.9909 34.2269 89.8524C34.3701 89.7139 34.4752 89.5516 34.5468 89.3654C34.6184 89.184 34.6518 88.993 34.6423 88.7925C34.6375 88.5968 34.5897 88.4106 34.5038 88.2291C34.4179 88.0525 34.2985 87.8997 34.1505 87.7708L31.6488 85.2882L48.1488 68.7882C50.2351 66.7734 50.6171 63.3073 49.0368 60.8962L53.9877 55.9453C54.1262 55.8068 54.2265 55.6541 54.2981 55.4774C54.3745 55.3055 54.4079 55.1193 54.4079 54.9331C54.4079 54.7422 54.3745 54.5607 54.2981 54.3841C54.2265 54.2074 54.1262 54.0547 53.9877 53.921ZM23.7998 86.7777L21.1405 84.1185L23.7998 81.4544L26.4639 84.1185L23.7998 86.7777ZM46.1531 66.7639L40.634 72.2639L31.5246 71.3997L41.1449 61.7604C41.4791 61.431 41.861 61.1731 42.2955 60.9965C42.7299 60.8151 43.1787 60.7291 43.6514 60.7291C44.1192 60.7291 44.5728 60.8151 45.0073 60.9965C45.4417 61.1731 45.8237 61.431 46.1531 61.7604C47.5186 63.0876 47.5186 65.4462 46.1531 66.7639Z" fill="#035AA6"/>
<mask id="mask0_356_517" style="mask-type:luminance" maskUnits="userSpaceOnUse" x="0" y="21" width="77" height="86">
<path d="M0 21.5798H77V106.83H0V21.5798Z" fill="white"/>
</mask>
<g mask="url(#mask0_356_517)">
<path d="M69.5473 27.2517H65.2886V26.5404C65.2886 26.2157 65.2552 25.891 65.1931 25.5712C65.1263 25.2513 65.0356 24.941 64.9115 24.6402C64.7826 24.3394 64.6298 24.0529 64.4483 23.7808C64.2669 23.5134 64.0616 23.2604 63.8325 23.0312C63.6033 22.7973 63.3503 22.592 63.0781 22.4106C62.8108 22.2292 62.5243 22.0764 62.2187 21.9522C61.918 21.8281 61.6076 21.7326 61.2878 21.6706C60.9679 21.6085 60.648 21.5751 60.3186 21.5751C59.9939 21.5751 59.6693 21.6085 59.3494 21.6706C59.0295 21.7326 58.7192 21.8281 58.4184 21.9522C58.1176 22.0764 57.8312 22.2292 57.559 22.4106C57.2869 22.592 57.0386 22.7973 56.8095 23.0312C56.5755 23.2604 56.3702 23.5134 56.1888 23.7808C56.0074 24.0529 55.8546 24.3394 55.7305 24.6402C55.6063 24.941 55.5108 25.2513 55.4488 25.5712C55.3819 25.891 55.3533 26.2157 55.3533 26.5404V27.2517H43.2886V26.5404C43.2886 26.2157 43.2552 25.891 43.1931 25.5712C43.1311 25.2513 43.0356 24.941 42.9115 24.6402C42.7873 24.3394 42.6345 24.0529 42.4531 23.7808C42.2717 23.5134 42.0664 23.2604 41.8325 23.0312C41.6033 22.7973 41.3503 22.592 41.0829 22.4106C40.8108 22.2292 40.5243 22.0764 40.2235 21.9522C39.9227 21.8281 39.6076 21.7326 39.2878 21.6706C38.9679 21.6085 38.648 21.5751 38.3234 21.5751C37.9939 21.5751 37.674 21.6085 37.3542 21.6706C37.0343 21.7326 36.7192 21.8281 36.4184 21.9522C36.1176 22.0764 35.8312 22.2292 35.559 22.4106C35.2917 22.592 35.0386 22.7973 34.8095 23.0312C34.5755 23.2604 34.3702 23.5134 34.1888 23.7808C34.0074 24.0529 33.8546 24.3394 33.7305 24.6402C33.6063 24.941 33.5109 25.2513 33.4488 25.5712C33.3867 25.891 33.3533 26.2157 33.3533 26.5404V27.2517H21.2886V26.5404C21.2886 26.2157 21.26 25.891 21.1931 25.5712C21.1311 25.2513 21.0356 24.941 20.9115 24.6402C20.7873 24.3394 20.6345 24.0529 20.4531 23.7808C20.2717 23.5134 20.0664 23.2604 19.8325 23.0312C19.6033 22.7973 19.355 22.592 19.0829 22.4106C18.8108 22.2292 18.5243 22.0764 18.2235 21.9522C17.9227 21.8281 17.6124 21.7326 17.2925 21.6706C16.9727 21.6085 16.648 21.5751 16.3234 21.5751C15.9939 21.5751 15.674 21.6085 15.3542 21.6706C15.0343 21.7326 14.724 21.8281 14.4232 21.9522C14.1176 22.0764 13.8312 22.2292 13.5638 22.4106C13.2917 22.592 13.0386 22.7973 12.8095 23.0312C12.5803 23.2604 12.375 23.5134 12.1936 23.7808C12.0122 24.0529 11.8594 24.3394 11.7305 24.6402C11.6063 24.941 11.5156 25.2513 11.4488 25.5712C11.3867 25.891 11.3533 26.2157 11.3533 26.5404V27.2517H7.09462C6.63151 27.2517 6.1684 27.2995 5.71007 27.3902C5.25651 27.4809 4.8125 27.6146 4.38281 27.7912C3.94835 27.9726 3.54254 28.1875 3.15582 28.4501C2.76432 28.7079 2.40625 28.9991 2.07682 29.3285C1.7474 29.658 1.45616 30.0208 1.19835 30.4075C0.935764 30.7943 0.716146 31.2001 0.539496 31.6345C0.362847 32.0642 0.229167 32.5082 0.138455 32.9618C0.0477431 33.4201 0 33.8832 0 34.3463V99.635C0 100.103 0.0477431 100.561 0.138455 101.02C0.229167 101.478 0.362847 101.922 0.539496 102.352C0.716146 102.781 0.935764 103.192 1.19835 103.579C1.45616 103.965 1.7474 104.323 2.07682 104.653C2.40625 104.982 2.76432 105.278 3.15582 105.536C3.54254 105.794 3.94835 106.013 4.38281 106.19C4.8125 106.372 5.25651 106.505 5.71007 106.596C6.1684 106.687 6.63151 106.734 7.09462 106.734H69.5473C70.0104 106.734 70.4735 106.687 70.9319 106.596C71.3854 106.505 71.8294 106.372 72.2591 106.19C72.6936 106.013 73.0994 105.794 73.4861 105.536C73.8776 105.278 74.2357 104.982 74.5651 104.653C74.8945 104.323 75.1858 103.965 75.4436 103.579C75.7062 103.192 75.9258 102.781 76.1024 102.352C76.2791 101.922 76.4128 101.478 76.5035 101.02C76.5942 100.561 76.6419 100.103 76.6419 99.635V34.3463C76.6419 33.8832 76.5942 33.4201 76.5035 32.9618C76.4128 32.5082 76.2791 32.0642 76.1024 31.6345C75.9258 31.2001 75.7062 30.7943 75.4436 30.4075C75.1858 30.0208 74.8945 29.658 74.5651 29.3285C74.2357 28.9991 73.8776 28.7079 73.4861 28.4501C73.0994 28.1875 72.6936 27.9726 72.2591 27.7912C71.8294 27.6146 71.3854 27.4809 70.9319 27.3902C70.4735 27.2995 70.0104 27.2517 69.5473 27.2517ZM58.1892 26.5404C58.1892 26.2587 58.2465 25.9865 58.3516 25.7287C58.4614 25.4661 58.6141 25.237 58.8147 25.0364C59.0152 24.8359 59.2444 24.6831 59.5069 24.5733C59.7648 24.4683 60.0369 24.4158 60.3186 24.4158C60.6003 24.4158 60.8724 24.4683 61.135 24.5733C61.3976 24.6831 61.6267 24.8359 61.8273 25.0364C62.023 25.237 62.1806 25.4661 62.2856 25.7287C62.3954 25.9865 62.4479 26.2587 62.4479 26.5404V32.2218C62.4479 32.5035 62.3954 32.7756 62.2856 33.0334C62.1806 33.296 62.023 33.5252 61.8273 33.7257C61.6267 33.9262 61.3976 34.079 61.135 34.1888C60.8724 34.2938 60.6003 34.3463 60.3186 34.3463C60.0369 34.3463 59.7648 34.2938 59.5069 34.1888C59.2444 34.079 59.0152 33.9262 58.8147 33.7257C58.6141 33.5252 58.4614 33.296 58.3516 33.0334C58.2465 32.7756 58.1892 32.5035 58.1892 32.2218V26.5404ZM36.194 26.5404C36.194 26.2587 36.2465 25.9865 36.3563 25.7287C36.4614 25.4661 36.6141 25.237 36.8147 25.0364C37.0152 24.8359 37.2444 24.6831 37.5069 24.5733C37.7648 24.4683 38.0369 24.4158 38.3234 24.4158C38.605 24.4158 38.8772 24.4683 39.135 24.5733C39.3976 24.6831 39.6267 24.8359 39.8273 25.0364C40.0278 25.237 40.1806 25.4661 40.2856 25.7287C40.3954 25.9865 40.4479 26.2587 40.4479 26.5404V32.2218C40.4479 32.5035 40.3954 32.7756 40.2856 33.0334C40.1806 33.296 40.0278 33.5252 39.8273 33.7257C39.6267 33.9262 39.3976 34.079 39.135 34.1888C38.8772 34.2938 38.605 34.3463 38.3234 34.3463C38.0369 34.3463 37.7648 34.2938 37.5069 34.1888C37.2444 34.079 37.0152 33.9262 36.8147 33.7257C36.6141 33.5252 36.4614 33.296 36.3563 33.0334C36.2465 32.7756 36.194 32.5035 36.194 32.2218V26.5404ZM14.194 26.5404C14.194 26.2587 14.2465 25.9865 14.3563 25.7287C14.4614 25.4661 14.6189 25.237 14.8147 25.0364C15.0152 24.8359 15.2444 24.6831 15.5069 24.5733C15.7695 24.4683 16.0417 24.4158 16.3234 24.4158C16.605 24.4158 16.8772 24.4683 17.135 24.5733C17.3976 24.6831 17.6267 24.8359 17.8273 25.0364C18.0278 25.237 18.1806 25.4661 18.2904 25.7287C18.3954 25.9865 18.4527 26.2587 18.4527 26.5404V32.2218C18.4527 32.5035 18.3954 32.7756 18.2904 33.0334C18.1806 33.296 18.0278 33.5252 17.8273 33.7257C17.6267 33.9262 17.3976 34.079 17.135 34.1888C16.8772 34.2938 16.605 34.3463 16.3234 34.3463C16.0417 34.3463 15.7695 34.2938 15.5069 34.1888C15.2444 34.079 15.0152 33.9262 14.8147 33.7257C14.6189 33.5252 14.4614 33.296 14.3563 33.0334C14.2465 32.7756 14.194 32.5035 14.194 32.2218V26.5404ZM61.0299 96.2166V89.6996C61.0299 89.1363 61.1398 88.5968 61.3594 88.0716C61.5742 87.5512 61.8798 87.0929 62.2808 86.6918C62.6771 86.2956 63.1402 85.9852 63.6606 85.7704C64.181 85.5555 64.7253 85.4457 65.2886 85.441H71.8008L61.0299 96.2166ZM73.8012 81.1871C73.8012 81.3732 73.7678 81.5547 73.6962 81.7265C73.6246 81.9032 73.5195 82.056 73.3858 82.1897C73.2522 82.3233 73.0994 82.4236 72.9275 82.4952C72.7556 82.5668 72.5742 82.605 72.3832 82.605H65.2886C64.8207 82.605 64.3624 82.648 63.9041 82.7387C63.4457 82.8342 63.0017 82.9679 62.572 83.1445C62.1424 83.3212 61.7318 83.5408 61.3451 83.7986C60.9583 84.0612 60.6003 84.3524 60.2708 84.6818C59.9414 85.0113 59.6454 85.3693 59.3876 85.7561C59.1298 86.1476 58.9102 86.5534 58.7335 86.9831C58.5521 87.4175 58.4184 87.8615 58.3277 88.3151C58.237 88.7734 58.1892 89.2365 58.1892 89.6996V96.799C58.1892 96.9852 58.1558 97.1667 58.0842 97.3385C58.0126 97.5152 57.9076 97.668 57.7739 97.8016C57.6402 97.9353 57.4874 98.0356 57.3155 98.1072C57.1389 98.1788 56.9622 98.217 56.7713 98.217L7.09462 98.1311C6.53125 98.1311 5.98698 98.0213 5.46658 97.8064C4.94618 97.5916 4.48307 97.286 4.08681 96.885C3.68576 96.4839 3.38021 96.0256 3.16059 95.5052C2.94575 94.98 2.84071 94.4405 2.84071 93.8724V47.1224H73.8012V81.1871Z" fill="#035AA6"/>
</g>
<path d="M101.958 92.8032H119.594C118.219 91.6096 117.503 88.3774 117.503 85.3887V42.525C117.503 39.5363 118.219 36.3088 119.594 35.1105H101.958C103.333 36.3088 104.054 39.5935 104.054 42.587V85.3314C104.054 88.3201 103.333 91.6096 101.958 92.8032Z" fill="#035AA6"/>
<path d="M121.986 35.1105C123.361 36.3088 124.082 39.5363 124.082 42.525V85.3887C124.082 88.3774 123.361 91.6096 121.986 92.8032H139.622C138.247 91.6096 137.531 88.3201 137.531 85.3314V62.4338L153.792 92.8032H169.337C167.962 91.6096 167.246 88.3774 167.246 85.3887V42.525C167.246 39.5363 167.962 36.3088 169.337 35.1105H151.701C153.076 36.3088 153.792 39.5935 153.792 42.587V65.4798L137.531 35.1105H121.986Z" fill="#035AA6"/>
<path d="M172.624 63.9855C172.624 80.3661 180.754 93.7007 199.646 93.7007C218.538 93.7007 226.669 80.3661 226.669 63.9855C226.669 47.5475 218.538 34.2129 199.646 34.2129C180.754 34.2129 172.624 47.5475 172.624 63.9855ZM186.078 63.9282C186.078 53.883 190.141 45.7524 199.589 45.7524C209.152 45.7524 213.22 53.883 213.22 63.9282C213.22 73.9112 209.152 82.1039 199.589 82.1039C190.141 82.1039 186.078 73.9112 186.078 63.9282Z" fill="#035AA6"/>
<path d="M237.013 52.0927C242.393 68.65 244.723 76.9 249.626 92.8032H260.688C267.501 81.6838 277.666 64.6443 277.666 49.2185C277.666 37.6838 272.586 35.1105 272.586 35.1105H259.075C259.075 35.1105 264.097 39.8323 264.097 50.9564C264.097 58.1895 261.104 68.3492 257.461 72.2975C254.649 62.5532 248.251 44.4968 248.251 39.7129C248.251 38.0992 248.91 36.4282 250.285 35.1105H229.359C233.308 39.5363 234.74 45.1556 237.013 52.0927Z" fill="#035AA6"/>
<path d="M284.542 92.8032H301.1C297.337 87.8427 295.065 82.4 294.167 75.587H310.19V85.3887C310.19 88.3774 309.469 91.6096 308.094 92.8032H325.73C324.355 91.6096 323.639 88.3201 323.639 85.3314V39.4742C321.906 36.2467 315.986 34.2129 310.429 34.2129C290.997 34.2129 280.355 51.9112 280.355 68.3492C280.355 78.0983 281.673 84.3145 284.542 92.8032ZM294.225 64.2242C295.423 56.337 299.787 46.5306 310.247 46.5306L310.19 64.2242H294.225Z" fill="#035AA6"/>
<path d="M357.001 93.7007C365.49 93.7007 373.023 91.3088 377.626 86.2289C375.592 81.3257 373.74 74.9855 373.74 74.9855C373.74 74.9855 369.553 82.2233 359.211 82.2233C350.007 82.2233 341.876 76.1838 341.876 63.9855C341.876 51.6725 350.007 45.633 359.211 45.633C369.553 45.633 373.74 52.8661 373.74 52.8661C373.74 52.8661 375.592 46.5306 377.626 41.6274C373.023 36.5475 365.49 34.2129 357.001 34.2129C339.603 34.2129 328.422 47.5475 328.422 63.9282C328.422 80.3088 339.603 93.7007 357.001 93.7007Z" fill="#035AA6"/>
<path d="M408.296 93.7007C416.785 93.7007 424.318 91.3088 428.921 86.2289C426.887 81.3257 425.035 74.9855 425.035 74.9855C425.035 74.9855 420.847 82.2233 410.506 82.2233C401.301 82.2233 393.171 76.1838 393.171 63.9855C393.171 51.6725 401.301 45.633 410.506 45.633C420.847 45.633 425.035 52.8661 425.035 52.8661C425.035 52.8661 426.887 46.5306 428.921 41.6274C424.318 36.5475 416.785 34.2129 408.296 34.2129C390.898 34.2129 379.717 47.5475 379.717 63.9282C379.717 80.3088 390.898 93.7007 408.296 93.7007Z" fill="#035AA6"/>
<path d="M430.114 92.8032H447.75C446.375 91.6096 445.659 88.3774 445.659 85.3887V42.525C445.659 39.5363 446.375 36.3088 447.75 35.1105H430.114C431.489 36.3088 432.21 39.5935 432.21 42.587V85.3314C432.21 88.3201 431.489 91.6096 430.114 92.8032Z" fill="#035AA6"/>
<path d="M450.142 35.1105C451.517 36.3088 452.238 39.5363 452.238 42.525V85.3887C452.238 88.3774 451.517 91.6096 450.142 92.8032H467.778C466.403 91.6096 465.687 88.3201 465.687 85.3314V62.4338L481.948 92.8032H497.493C496.118 91.6096 495.402 88.3774 495.402 85.3887V42.525C495.402 39.5363 496.118 36.3088 497.493 35.1105H479.857C481.232 36.3088 481.948 39.5935 481.948 42.587V65.4798L465.687 35.1105H450.142Z" fill="#035AA6"/>
<path d="M529.359 93.7007C537.848 93.7007 545.382 91.3088 549.984 86.2289C547.95 81.3257 546.098 74.9855 546.098 74.9855C546.098 74.9855 541.911 82.2233 531.57 82.2233C526.251 82.2233 521.286 80.1895 518.058 76.1217C515.547 70.2637 521.348 67.5757 528.581 67.5757C533.245 67.5757 537.967 69.6048 540.359 71.6387V58.4282C539.399 56.633 535.217 55.0814 531.57 55.0814C522.064 55.0814 515.428 62.9112 516.086 72.9564C514.888 70.5024 514.234 67.5137 514.234 63.9855C514.234 51.6725 522.365 45.633 531.57 45.633C541.911 45.633 546.098 52.8661 546.098 52.8661C546.098 52.8661 547.95 46.5306 549.984 41.6274C545.382 36.5475 537.848 34.2129 529.359 34.2129C511.961 34.2129 500.78 47.5475 500.78 63.9282C500.78 80.3088 511.961 93.7007 529.359 93.7007Z" fill="#035AA6"/>
</g>
<defs>
<clipPath id="clip0_356_517">
<rect width="550" height="128.333" fill="white"/>
</clipPath>
</defs>
</svg>
