<svg xmlns="http://www.w3.org/2000/svg" xmlns:xlink="http://www.w3.org/1999/xlink" width="600" zoomAndPan="magnify" viewBox="0 0 450 104.999996" height="140" preserveAspectRatio="xMidYMid meet" version="1.0"><defs><g/><clipPath id="eafdcfcf5f"><path d="M 0 17.65625 L 63 17.65625 L 63 87.40625 L 0 87.40625 Z M 0 17.65625 " clip-rule="nonzero"/></clipPath></defs><path fill="#ebf8f6" d="M 50.59375 57.597656 C 50.257812 57.824219 49.890625 58 49.5 58.117188 C 49.109375 58.238281 48.710938 58.296875 48.300781 58.296875 C 47.894531 58.296875 47.492188 58.238281 47.101562 58.117188 C 46.710938 58 46.347656 57.824219 46.007812 57.597656 C 44.546875 56.601562 44 54.839844 44.5 52.757812 C 44.546875 52.570312 45.007812 50.828125 47.449219 48.214844 C 47.558594 48.097656 47.6875 48.007812 47.835938 47.945312 C 47.980469 47.878906 48.136719 47.847656 48.296875 47.847656 C 48.457031 47.847656 48.609375 47.878906 48.757812 47.945312 C 48.90625 48.007812 49.035156 48.097656 49.144531 48.214844 C 51.570312 50.816406 52.046875 52.546875 52.09375 52.757812 C 52.59375 54.835938 52.046875 56.601562 50.59375 57.597656 Z M 50.59375 57.597656 " fill-opacity="1" fill-rule="nonzero"/><path fill="#ebf8f6" d="M 44.171875 44.117188 C 44.066406 44.007812 43.941406 43.925781 43.796875 43.867188 C 43.65625 43.808594 43.507812 43.777344 43.355469 43.777344 C 43.203125 43.777344 43.054688 43.808594 42.914062 43.867188 C 42.769531 43.925781 42.644531 44.007812 42.535156 44.117188 L 38.484375 48.167969 C 37.984375 47.855469 37.445312 47.636719 36.871094 47.503906 C 36.296875 47.375 35.714844 47.339844 35.128906 47.40625 C 34.542969 47.472656 33.984375 47.632812 33.453125 47.886719 C 32.921875 48.144531 32.445312 48.480469 32.027344 48.894531 L 18.527344 62.394531 L 16.484375 60.351562 C 16.375 60.242188 16.246094 60.160156 16.105469 60.097656 C 15.960938 60.039062 15.8125 60.011719 15.660156 60.011719 C 15.503906 60.011719 15.355469 60.039062 15.214844 60.097656 C 15.070312 60.160156 14.945312 60.242188 14.835938 60.351562 C 14.726562 60.460938 14.644531 60.585938 14.585938 60.726562 C 14.527344 60.867188 14.496094 61.015625 14.496094 61.167969 C 14.496094 61.324219 14.527344 61.46875 14.585938 61.613281 C 14.644531 61.753906 14.726562 61.878906 14.835938 61.988281 L 17.84375 64.984375 L 15.664062 67.160156 L 14.574219 66.070312 C 14.464844 65.960938 14.339844 65.878906 14.199219 65.820312 C 14.054688 65.761719 13.910156 65.734375 13.753906 65.734375 C 13.601562 65.734375 13.453125 65.761719 13.3125 65.820312 C 13.171875 65.878906 13.046875 65.960938 12.9375 66.070312 C 12.824219 66.179688 12.738281 66.304688 12.675781 66.449219 C 12.613281 66.589844 12.582031 66.742188 12.582031 66.898438 C 12.582031 67.050781 12.609375 67.203125 12.667969 67.347656 C 12.726562 67.492188 12.808594 67.621094 12.917969 67.730469 L 20.558594 75.371094 C 20.667969 75.480469 20.792969 75.5625 20.9375 75.621094 C 21.078125 75.679688 21.226562 75.710938 21.378906 75.710938 C 21.53125 75.710938 21.679688 75.679688 21.820312 75.621094 C 21.964844 75.5625 22.089844 75.480469 22.195312 75.371094 C 22.304688 75.261719 22.390625 75.136719 22.449219 74.992188 C 22.507812 74.851562 22.535156 74.703125 22.535156 74.546875 C 22.535156 74.394531 22.507812 74.242188 22.449219 74.101562 C 22.390625 73.957031 22.304688 73.832031 22.195312 73.722656 L 21.117188 72.632812 L 23.292969 70.453125 L 26.300781 73.449219 C 26.40625 73.574219 26.53125 73.667969 26.679688 73.738281 C 26.824219 73.808594 26.976562 73.847656 27.140625 73.855469 C 27.300781 73.859375 27.457031 73.835938 27.609375 73.777344 C 27.757812 73.714844 27.890625 73.628906 28.003906 73.515625 C 28.121094 73.402344 28.207031 73.269531 28.265625 73.117188 C 28.324219 72.96875 28.351562 72.8125 28.34375 72.648438 C 28.339844 72.488281 28.300781 72.335938 28.230469 72.1875 C 28.160156 72.042969 28.0625 71.917969 27.941406 71.8125 L 25.894531 69.78125 L 39.394531 56.28125 C 41.101562 54.632812 41.414062 51.796875 40.121094 49.824219 L 44.171875 45.773438 C 44.285156 45.660156 44.367188 45.535156 44.425781 45.390625 C 44.488281 45.25 44.515625 45.097656 44.515625 44.945312 C 44.515625 44.789062 44.488281 44.640625 44.425781 44.496094 C 44.367188 44.351562 44.285156 44.226562 44.171875 44.117188 Z M 19.472656 71 L 17.296875 68.820312 L 19.472656 66.644531 L 21.652344 68.820312 Z M 37.761719 54.625 L 33.246094 59.125 L 25.792969 58.417969 L 33.664062 50.53125 C 33.9375 50.261719 34.25 50.050781 34.605469 49.90625 C 34.960938 49.757812 35.328125 49.6875 35.714844 49.6875 C 36.097656 49.6875 36.46875 49.757812 36.824219 49.90625 C 37.179688 50.050781 37.492188 50.261719 37.761719 50.53125 C 38.878906 51.617188 38.878906 53.546875 37.761719 54.625 Z M 37.761719 54.625 " fill-opacity="1" fill-rule="nonzero"/><g clip-path="url(#eafdcfcf5f)"><path fill="#ebf8f6" d="M 56.902344 22.296875 L 53.417969 22.296875 L 53.417969 21.714844 C 53.417969 21.449219 53.390625 21.183594 53.339844 20.921875 C 53.285156 20.660156 53.210938 20.40625 53.109375 20.160156 C 53.003906 19.914062 52.878906 19.679688 52.730469 19.457031 C 52.582031 19.238281 52.414062 19.03125 52.226562 18.84375 C 52.039062 18.652344 51.832031 18.484375 51.609375 18.335938 C 51.390625 18.1875 51.15625 18.0625 50.90625 17.960938 C 50.660156 17.859375 50.40625 17.78125 50.144531 17.730469 C 49.882812 17.679688 49.621094 17.652344 49.351562 17.652344 C 49.085938 17.652344 48.820312 17.679688 48.558594 17.730469 C 48.296875 17.78125 48.042969 17.859375 47.796875 17.960938 C 47.550781 18.0625 47.316406 18.1875 47.09375 18.335938 C 46.871094 18.484375 46.667969 18.652344 46.480469 18.84375 C 46.289062 19.03125 46.121094 19.238281 45.972656 19.457031 C 45.824219 19.679688 45.699219 19.914062 45.597656 20.160156 C 45.496094 20.40625 45.417969 20.660156 45.367188 20.921875 C 45.3125 21.183594 45.289062 21.449219 45.289062 21.714844 L 45.289062 22.296875 L 35.417969 22.296875 L 35.417969 21.714844 C 35.417969 21.449219 35.390625 21.183594 35.339844 20.921875 C 35.289062 20.660156 35.210938 20.40625 35.109375 20.160156 C 35.007812 19.914062 34.882812 19.679688 34.734375 19.457031 C 34.585938 19.238281 34.417969 19.03125 34.226562 18.84375 C 34.039062 18.652344 33.832031 18.484375 33.613281 18.335938 C 33.390625 18.1875 33.15625 18.0625 32.910156 17.960938 C 32.664062 17.859375 32.40625 17.78125 32.144531 17.730469 C 31.882812 17.679688 31.621094 17.652344 31.355469 17.652344 C 31.085938 17.652344 30.824219 17.679688 30.5625 17.730469 C 30.300781 17.78125 30.042969 17.859375 29.796875 17.960938 C 29.550781 18.0625 29.316406 18.1875 29.09375 18.335938 C 28.875 18.484375 28.667969 18.652344 28.480469 18.84375 C 28.289062 19.03125 28.121094 19.238281 27.972656 19.457031 C 27.824219 19.679688 27.699219 19.914062 27.597656 20.160156 C 27.496094 20.40625 27.417969 20.660156 27.367188 20.921875 C 27.316406 21.183594 27.289062 21.449219 27.289062 21.714844 L 27.289062 22.296875 L 17.417969 22.296875 L 17.417969 21.714844 C 17.417969 21.449219 17.394531 21.183594 17.339844 20.921875 C 17.289062 20.660156 17.210938 20.40625 17.109375 20.160156 C 17.007812 19.914062 16.882812 19.679688 16.734375 19.457031 C 16.585938 19.238281 16.417969 19.03125 16.226562 18.84375 C 16.039062 18.652344 15.835938 18.484375 15.613281 18.335938 C 15.390625 18.1875 15.15625 18.0625 14.910156 17.960938 C 14.664062 17.859375 14.410156 17.78125 14.148438 17.730469 C 13.886719 17.679688 13.621094 17.652344 13.355469 17.652344 C 13.085938 17.652344 12.824219 17.679688 12.5625 17.730469 C 12.300781 17.78125 12.046875 17.859375 11.800781 17.960938 C 11.550781 18.0625 11.316406 18.1875 11.097656 18.335938 C 10.875 18.484375 10.667969 18.652344 10.480469 18.84375 C 10.292969 19.03125 10.125 19.238281 9.976562 19.457031 C 9.828125 19.679688 9.703125 19.914062 9.597656 20.160156 C 9.496094 20.40625 9.421875 20.660156 9.367188 20.921875 C 9.316406 21.183594 9.289062 21.449219 9.289062 21.714844 L 9.289062 22.296875 L 5.804688 22.296875 C 5.425781 22.296875 5.046875 22.335938 4.671875 22.410156 C 4.300781 22.484375 3.9375 22.59375 3.585938 22.738281 C 3.230469 22.886719 2.898438 23.0625 2.582031 23.277344 C 2.261719 23.488281 1.96875 23.726562 1.699219 23.996094 C 1.429688 24.265625 1.191406 24.5625 0.980469 24.878906 C 0.765625 25.195312 0.585938 25.527344 0.441406 25.882812 C 0.296875 26.234375 0.1875 26.597656 0.113281 26.96875 C 0.0390625 27.34375 0 27.722656 0 28.101562 L 0 81.519531 C 0 81.902344 0.0390625 82.277344 0.113281 82.652344 C 0.1875 83.027344 0.296875 83.390625 0.441406 83.742188 C 0.585938 84.09375 0.765625 84.429688 0.980469 84.746094 C 1.191406 85.0625 1.429688 85.355469 1.699219 85.625 C 1.96875 85.894531 2.261719 86.136719 2.582031 86.347656 C 2.898438 86.558594 3.230469 86.738281 3.585938 86.882812 C 3.9375 87.03125 4.300781 87.140625 4.671875 87.214844 C 5.046875 87.289062 5.425781 87.328125 5.804688 87.328125 L 56.902344 87.328125 C 57.28125 87.328125 57.660156 87.289062 58.035156 87.214844 C 58.40625 87.140625 58.769531 87.03125 59.121094 86.882812 C 59.476562 86.738281 59.808594 86.558594 60.125 86.347656 C 60.445312 86.136719 60.738281 85.894531 61.007812 85.625 C 61.277344 85.355469 61.515625 85.0625 61.726562 84.746094 C 61.941406 84.429688 62.121094 84.09375 62.265625 83.742188 C 62.410156 83.390625 62.519531 83.027344 62.59375 82.652344 C 62.667969 82.277344 62.707031 81.902344 62.707031 81.519531 L 62.707031 28.101562 C 62.707031 27.722656 62.667969 27.34375 62.59375 26.96875 C 62.519531 26.597656 62.410156 26.234375 62.265625 25.882812 C 62.121094 25.527344 61.941406 25.195312 61.726562 24.878906 C 61.515625 24.5625 61.277344 24.265625 61.007812 23.996094 C 60.738281 23.726562 60.445312 23.488281 60.125 23.277344 C 59.808594 23.0625 59.476562 22.886719 59.121094 22.738281 C 58.769531 22.59375 58.40625 22.484375 58.035156 22.410156 C 57.660156 22.335938 57.28125 22.296875 56.902344 22.296875 Z M 47.609375 21.714844 C 47.609375 21.484375 47.65625 21.261719 47.742188 21.050781 C 47.832031 20.835938 47.957031 20.648438 48.121094 20.484375 C 48.285156 20.320312 48.472656 20.195312 48.6875 20.105469 C 48.898438 20.019531 49.121094 19.976562 49.351562 19.976562 C 49.582031 19.976562 49.804688 20.019531 50.019531 20.105469 C 50.234375 20.195312 50.421875 20.320312 50.585938 20.484375 C 50.746094 20.648438 50.875 20.835938 50.960938 21.050781 C 51.050781 21.261719 51.09375 21.484375 51.09375 21.714844 L 51.09375 26.363281 C 51.09375 26.59375 51.050781 26.816406 50.960938 27.027344 C 50.875 27.242188 50.746094 27.429688 50.585938 27.59375 C 50.421875 27.757812 50.234375 27.882812 50.019531 27.972656 C 49.804688 28.058594 49.582031 28.101562 49.351562 28.101562 C 49.121094 28.101562 48.898438 28.058594 48.6875 27.972656 C 48.472656 27.882812 48.285156 27.757812 48.121094 27.59375 C 47.957031 27.429688 47.832031 27.242188 47.742188 27.027344 C 47.65625 26.816406 47.609375 26.59375 47.609375 26.363281 Z M 29.613281 21.714844 C 29.613281 21.484375 29.65625 21.261719 29.746094 21.050781 C 29.832031 20.835938 29.957031 20.648438 30.121094 20.484375 C 30.285156 20.320312 30.472656 20.195312 30.6875 20.105469 C 30.898438 20.019531 31.121094 19.976562 31.355469 19.976562 C 31.585938 19.976562 31.808594 20.019531 32.019531 20.105469 C 32.234375 20.195312 32.421875 20.320312 32.585938 20.484375 C 32.75 20.648438 32.875 20.835938 32.960938 21.050781 C 33.050781 21.261719 33.09375 21.484375 33.09375 21.714844 L 33.09375 26.363281 C 33.09375 26.59375 33.050781 26.816406 32.960938 27.027344 C 32.875 27.242188 32.75 27.429688 32.585938 27.59375 C 32.421875 27.757812 32.234375 27.882812 32.019531 27.972656 C 31.808594 28.058594 31.585938 28.101562 31.355469 28.101562 C 31.121094 28.101562 30.898438 28.058594 30.6875 27.972656 C 30.472656 27.882812 30.285156 27.757812 30.121094 27.59375 C 29.957031 27.429688 29.832031 27.242188 29.746094 27.027344 C 29.65625 26.816406 29.613281 26.59375 29.613281 26.363281 Z M 11.613281 21.714844 C 11.613281 21.484375 11.65625 21.261719 11.746094 21.050781 C 11.832031 20.835938 11.960938 20.648438 12.121094 20.484375 C 12.285156 20.320312 12.472656 20.195312 12.6875 20.105469 C 12.902344 20.019531 13.125 19.976562 13.355469 19.976562 C 13.585938 19.976562 13.808594 20.019531 14.019531 20.105469 C 14.234375 20.195312 14.421875 20.320312 14.585938 20.484375 C 14.75 20.648438 14.875 20.835938 14.964844 21.050781 C 15.050781 21.261719 15.097656 21.484375 15.097656 21.714844 L 15.097656 26.363281 C 15.097656 26.59375 15.050781 26.816406 14.964844 27.027344 C 14.875 27.242188 14.75 27.429688 14.585938 27.59375 C 14.421875 27.757812 14.234375 27.882812 14.019531 27.972656 C 13.808594 28.058594 13.585938 28.101562 13.355469 28.101562 C 13.125 28.101562 12.902344 28.058594 12.6875 27.972656 C 12.472656 27.882812 12.285156 27.757812 12.121094 27.59375 C 11.960938 27.429688 11.832031 27.242188 11.746094 27.027344 C 11.65625 26.816406 11.613281 26.59375 11.613281 26.363281 Z M 49.933594 78.722656 L 49.933594 73.390625 C 49.933594 72.929688 50.023438 72.484375 50.203125 72.058594 C 50.378906 71.632812 50.628906 71.257812 50.957031 70.929688 C 51.28125 70.605469 51.660156 70.351562 52.085938 70.175781 C 52.511719 70 52.957031 69.910156 53.417969 69.90625 L 58.746094 69.90625 Z M 60.382812 66.425781 C 60.382812 66.578125 60.355469 66.726562 60.296875 66.867188 C 60.238281 67.011719 60.152344 67.136719 60.042969 67.246094 C 59.933594 67.355469 59.808594 67.4375 59.667969 67.496094 C 59.527344 67.554688 59.378906 67.585938 59.222656 67.585938 L 53.417969 67.585938 C 53.035156 67.585938 52.660156 67.621094 52.285156 67.695312 C 51.910156 67.769531 51.546875 67.882812 51.195312 68.027344 C 50.84375 68.171875 50.507812 68.351562 50.191406 68.5625 C 49.875 68.777344 49.582031 69.015625 49.3125 69.285156 C 49.042969 69.554688 48.800781 69.847656 48.589844 70.164062 C 48.378906 70.484375 48.199219 70.816406 48.054688 71.167969 C 47.90625 71.523438 47.796875 71.886719 47.722656 72.257812 C 47.648438 72.632812 47.609375 73.011719 47.609375 73.390625 L 47.609375 79.199219 C 47.609375 79.351562 47.582031 79.5 47.523438 79.640625 C 47.464844 79.785156 47.378906 79.910156 47.269531 80.019531 C 47.160156 80.128906 47.035156 80.210938 46.894531 80.269531 C 46.75 80.328125 46.605469 80.359375 46.449219 80.359375 L 5.804688 80.289062 C 5.34375 80.289062 4.898438 80.199219 4.472656 80.023438 C 4.046875 79.847656 3.667969 79.597656 3.34375 79.269531 C 3.015625 78.941406 2.765625 78.566406 2.585938 78.140625 C 2.410156 77.710938 2.324219 77.269531 2.324219 76.804688 L 2.324219 38.554688 L 60.382812 38.554688 Z M 60.382812 66.425781 " fill-opacity="1" fill-rule="nonzero"/></g><g fill="#ebf8f6" fill-opacity="1"><g transform="translate(82.443547, 75.929871)"><g><path d="M 0.976562 0 L 15.40625 0 C 14.28125 -0.976562 13.695312 -3.621094 13.695312 -6.066406 L 13.695312 -41.136719 C 13.695312 -43.582031 14.28125 -46.222656 15.40625 -47.203125 L 0.976562 -47.203125 C 2.101562 -46.222656 2.691406 -43.535156 2.691406 -41.085938 L 2.691406 -6.113281 C 2.691406 -3.667969 2.101562 -0.976562 0.976562 0 Z M 0.976562 0 "/></g></g></g><g fill="#ebf8f6" fill-opacity="1"><g transform="translate(98.829916, 75.929871)"><g><path d="M 0.976562 -47.203125 C 2.101562 -46.222656 2.691406 -43.582031 2.691406 -41.136719 L 2.691406 -6.066406 C 2.691406 -3.621094 2.101562 -0.976562 0.976562 0 L 15.40625 0 C 14.28125 -0.976562 13.695312 -3.667969 13.695312 -6.113281 L 13.695312 -24.847656 L 27 0 L 39.71875 0 C 38.59375 -0.976562 38.007812 -3.621094 38.007812 -6.066406 L 38.007812 -41.136719 C 38.007812 -43.582031 38.59375 -46.222656 39.71875 -47.203125 L 25.289062 -47.203125 C 26.414062 -46.222656 27 -43.535156 27 -41.085938 L 27 -22.355469 L 13.695312 -47.203125 Z M 0.976562 -47.203125 "/></g></g></g><g fill="#ebf8f6" fill-opacity="1"><g transform="translate(139.526742, 75.929871)"><g><path d="M 1.710938 -23.578125 C 1.710938 -10.175781 8.363281 0.734375 23.820312 0.734375 C 39.277344 0.734375 45.929688 -10.175781 45.929688 -23.578125 C 45.929688 -37.027344 39.277344 -47.9375 23.820312 -47.9375 C 8.363281 -47.9375 1.710938 -37.027344 1.710938 -23.578125 Z M 12.71875 -23.625 C 12.71875 -31.84375 16.042969 -38.496094 23.773438 -38.496094 C 31.597656 -38.496094 34.925781 -31.84375 34.925781 -23.625 C 34.925781 -15.457031 31.597656 -8.753906 23.773438 -8.753906 C 16.042969 -8.753906 12.71875 -15.457031 12.71875 -23.625 Z M 12.71875 -23.625 "/></g></g></g><g fill="#ebf8f6" fill-opacity="1"><g transform="translate(187.169412, 75.929871)"><g><path d="M 6.75 -33.308594 C 11.152344 -19.761719 13.058594 -13.011719 17.070312 0 L 26.121094 0 C 31.695312 -9.097656 40.011719 -23.039062 40.011719 -35.660156 C 40.011719 -45.097656 35.855469 -47.203125 35.855469 -47.203125 L 24.800781 -47.203125 C 24.800781 -47.203125 28.910156 -43.339844 28.910156 -34.238281 C 28.910156 -28.320312 26.460938 -20.007812 23.480469 -16.777344 C 21.179688 -24.75 15.945312 -39.523438 15.945312 -43.4375 C 15.945312 -44.757812 16.484375 -46.125 17.609375 -47.203125 L 0.488281 -47.203125 C 3.71875 -43.582031 4.890625 -38.984375 6.75 -33.308594 Z M 6.75 -33.308594 "/></g></g></g><g fill="#ebf8f6" fill-opacity="1"><g transform="translate(227.670565, 75.929871)"><g><path d="M 5.136719 0 L 18.683594 0 C 15.605469 -4.058594 13.746094 -8.511719 13.011719 -14.085938 L 26.121094 -14.085938 L 26.121094 -6.066406 C 26.121094 -3.621094 25.53125 -0.976562 24.40625 0 L 38.835938 0 C 37.710938 -0.976562 37.125 -3.667969 37.125 -6.113281 L 37.125 -43.632812 C 35.707031 -46.273438 30.863281 -47.9375 26.316406 -47.9375 C 10.417969 -47.9375 1.710938 -33.457031 1.710938 -20.007812 C 1.710938 -12.03125 2.789062 -6.945312 5.136719 0 Z M 13.058594 -23.382812 C 14.039062 -29.835938 17.609375 -37.859375 26.167969 -37.859375 L 26.121094 -23.382812 Z M 13.058594 -23.382812 "/></g></g></g><g fill="#ebf8f6" fill-opacity="1"><g transform="translate(266.997801, 75.929871)"><g><path d="M 25.09375 0.734375 C 32.039062 0.734375 38.203125 -1.222656 41.96875 -5.378906 C 40.304688 -9.390625 38.789062 -14.578125 38.789062 -14.578125 C 38.789062 -14.578125 35.363281 -8.65625 26.902344 -8.65625 C 19.371094 -8.65625 12.71875 -13.597656 12.71875 -23.578125 C 12.71875 -33.652344 19.371094 -38.59375 26.902344 -38.59375 C 35.363281 -38.59375 38.789062 -32.675781 38.789062 -32.675781 C 38.789062 -32.675781 40.304688 -37.859375 41.96875 -41.871094 C 38.203125 -46.027344 32.039062 -47.9375 25.09375 -47.9375 C 10.859375 -47.9375 1.710938 -37.027344 1.710938 -23.625 C 1.710938 -10.222656 10.859375 0.734375 25.09375 0.734375 Z M 25.09375 0.734375 "/></g></g></g><g fill="#ebf8f6" fill-opacity="1"><g transform="translate(308.96638, 75.929871)"><g><path d="M 25.09375 0.734375 C 32.039062 0.734375 38.203125 -1.222656 41.96875 -5.378906 C 40.304688 -9.390625 38.789062 -14.578125 38.789062 -14.578125 C 38.789062 -14.578125 35.363281 -8.65625 26.902344 -8.65625 C 19.371094 -8.65625 12.71875 -13.597656 12.71875 -23.578125 C 12.71875 -33.652344 19.371094 -38.59375 26.902344 -38.59375 C 35.363281 -38.59375 38.789062 -32.675781 38.789062 -32.675781 C 38.789062 -32.675781 40.304688 -37.859375 41.96875 -41.871094 C 38.203125 -46.027344 32.039062 -47.9375 25.09375 -47.9375 C 10.859375 -47.9375 1.710938 -37.027344 1.710938 -23.625 C 1.710938 -10.222656 10.859375 0.734375 25.09375 0.734375 Z M 25.09375 0.734375 "/></g></g></g><g fill="#ebf8f6" fill-opacity="1"><g transform="translate(350.934958, 75.929871)"><g><path d="M 0.976562 0 L 15.40625 0 C 14.28125 -0.976562 13.695312 -3.621094 13.695312 -6.066406 L 13.695312 -41.136719 C 13.695312 -43.582031 14.28125 -46.222656 15.40625 -47.203125 L 0.976562 -47.203125 C 2.101562 -46.222656 2.691406 -43.535156 2.691406 -41.085938 L 2.691406 -6.113281 C 2.691406 -3.667969 2.101562 -0.976562 0.976562 0 Z M 0.976562 0 "/></g></g></g><g fill="#ebf8f6" fill-opacity="1"><g transform="translate(367.321327, 75.929871)"><g><path d="M 0.976562 -47.203125 C 2.101562 -46.222656 2.691406 -43.582031 2.691406 -41.136719 L 2.691406 -6.066406 C 2.691406 -3.621094 2.101562 -0.976562 0.976562 0 L 15.40625 0 C 14.28125 -0.976562 13.695312 -3.667969 13.695312 -6.113281 L 13.695312 -24.847656 L 27 0 L 39.71875 0 C 38.59375 -0.976562 38.007812 -3.621094 38.007812 -6.066406 L 38.007812 -41.136719 C 38.007812 -43.582031 38.59375 -46.222656 39.71875 -47.203125 L 25.289062 -47.203125 C 26.414062 -46.222656 27 -43.535156 27 -41.085938 L 27 -22.355469 L 13.695312 -47.203125 Z M 0.976562 -47.203125 "/></g></g></g><g fill="#ebf8f6" fill-opacity="1"><g transform="translate(408.018153, 75.929871)"><g><path d="M 25.09375 0.734375 C 32.039062 0.734375 38.203125 -1.222656 41.96875 -5.378906 C 40.304688 -9.390625 38.789062 -14.578125 38.789062 -14.578125 C 38.789062 -14.578125 35.363281 -8.65625 26.902344 -8.65625 C 22.550781 -8.65625 18.488281 -10.320312 15.847656 -13.648438 C 13.792969 -18.441406 18.539062 -20.640625 24.457031 -20.640625 C 28.273438 -20.640625 32.136719 -18.980469 34.09375 -17.316406 L 34.09375 -28.125 C 33.308594 -29.59375 29.886719 -30.863281 26.902344 -30.863281 C 19.125 -30.863281 13.695312 -24.457031 14.234375 -16.238281 C 13.253906 -18.246094 12.71875 -20.691406 12.71875 -23.578125 C 12.71875 -33.652344 19.371094 -38.59375 26.902344 -38.59375 C 35.363281 -38.59375 38.789062 -32.675781 38.789062 -32.675781 C 38.789062 -32.675781 40.304688 -37.859375 41.96875 -41.871094 C 38.203125 -46.027344 32.039062 -47.9375 25.09375 -47.9375 C 10.859375 -47.9375 1.710938 -37.027344 1.710938 -23.625 C 1.710938 -10.222656 10.859375 0.734375 25.09375 0.734375 Z M 25.09375 0.734375 "/></g></g></g></svg>